<svg xmlns="http://www.w3.org/2000/svg" viewBox="0 0 1436.24 931.98"><defs><style>.cls-1{opacity:0.5;}.cls-2{fill:#bcbec0;}.cls-3{opacity:0.6;}.cls-11,.cls-12,.cls-13,.cls-14,.cls-15,.cls-16,.cls-18,.cls-19,.cls-20,.cls-21,.cls-22,.cls-23,.cls-24,.cls-25,.cls-26,.cls-27,.cls-28,.cls-29,.cls-30,.cls-31,.cls-32,.cls-33,.cls-34,.cls-35,.cls-36,.cls-37,.cls-38,.cls-4,.cls-5,.cls-6,.cls-7,.cls-8,.cls-9{fill:none;stroke-miterlimit:10;}.cls-20,.cls-21,.cls-22,.cls-23,.cls-24,.cls-4,.cls-5,.cls-6,.cls-7,.cls-8,.cls-9{stroke:#d1d3d4;}.cls-4{stroke-width:1.14px;}.cls-5{stroke-width:1.63px;}.cls-19,.cls-6{stroke-width:1.11px;}.cls-7{stroke-width:1.3px;}.cls-8{stroke-width:1.07px;}.cls-9{stroke-width:1.79px;}.cls-10{opacity:0.8;}.cls-11,.cls-12,.cls-13,.cls-14,.cls-15,.cls-16,.cls-18,.cls-19,.cls-25,.cls-26,.cls-27,.cls-28,.cls-29,.cls-30,.cls-31,.cls-32,.cls-33,.cls-34,.cls-35,.cls-36,.cls-37,.cls-38{stroke:#bcbec0;}.cls-11{stroke-width:3.57px;}.cls-12{stroke-width:2.02px;}.cls-13{stroke-width:2.58px;}.cls-14{stroke-width:1.81px;}.cls-15{stroke-width:1.83px;}.cls-16{stroke-width:2.19px;}.cls-17{opacity:0.3;}.cls-18{stroke-width:1.03px;}.cls-20{stroke-width:1.48px;}.cls-21{stroke-width:1.4px;}.cls-22{stroke-width:1.55px;}.cls-23,.cls-27{stroke-width:1.61px;}.cls-24{stroke-width:1.8px;}.cls-25{stroke-width:1px;}.cls-26{stroke-width:0.88px;}.cls-28{stroke-width:1.13px;}.cls-29{stroke-width:0.84px;}.cls-30{stroke-width:1.01px;}.cls-31{stroke-width:1.04px;}.cls-32{stroke-width:1.05px;}.cls-33{stroke-width:2.36px;}.cls-34{stroke-width:2.35px;}.cls-35{stroke-width:2.76px;}.cls-36{stroke-width:1.81px;}.cls-37{stroke-width:1.76px;}.cls-38{stroke-width:2.16px;}</style></defs><g id="Layer_2" data-name="Layer 2"><g id="Layer_1-2" data-name="Layer 1"><g class="cls-1"><path class="cls-2" d="M462.06,410.67a3.19,3.19,0,1,1-4.38,1.12A3.19,3.19,0,0,1,462.06,410.67Z"/><path class="cls-2" d="M462.49,527.38a3.19,3.19,0,1,1-3.16-3.23A3.19,3.19,0,0,1,462.49,527.38Z"/><path class="cls-2" d="M361.64,586.11a3.19,3.19,0,1,1,1.21-4.35A3.18,3.18,0,0,1,361.64,586.11Z"/><path class="cls-2" d="M260.34,528.13a3.19,3.19,0,1,1,4.38-1.12A3.19,3.19,0,0,1,260.34,528.13Z"/><path class="cls-2" d="M259.91,411.42a3.19,3.19,0,1,1,3.16,3.23A3.2,3.2,0,0,1,259.91,411.42Z"/><path class="cls-2" d="M360.76,352.69a3.19,3.19,0,1,1-1.21,4.35A3.2,3.2,0,0,1,360.76,352.69Z"/><path class="cls-2" d="M446.75,370.4a2.63,2.63,0,1,1-3.61.93A2.63,2.63,0,0,1,446.75,370.4Z"/><path class="cls-2" d="M447.11,466.53a2.63,2.63,0,1,1-2.61-2.66A2.63,2.63,0,0,1,447.11,466.53Z"/><path class="cls-2" d="M364,514.91a2.64,2.64,0,1,1,1-3.59A2.65,2.65,0,0,1,364,514.91Z"/><path class="cls-2" d="M280.61,467.15a2.63,2.63,0,1,1,3.6-.92A2.62,2.62,0,0,1,280.61,467.15Z"/><path class="cls-2" d="M280.25,371a2.63,2.63,0,1,1,2.6,2.66A2.62,2.62,0,0,1,280.25,371Z"/><path class="cls-2" d="M363.32,322.65a2.63,2.63,0,1,1-1,3.58A2.62,2.62,0,0,1,363.32,322.65Z"/><path class="cls-2" d="M595.38,296.71a1.6,1.6,0,1,1-2.19.56A1.61,1.61,0,0,1,595.38,296.71Z"/><path class="cls-2" d="M595.59,355a1.59,1.59,0,1,1-1.57-1.61A1.59,1.59,0,0,1,595.59,355Z"/><path class="cls-2" d="M545.22,384.34a1.59,1.59,0,1,1,.61-2.18A1.59,1.59,0,0,1,545.22,384.34Z"/><path class="cls-2" d="M494.63,355.38a1.6,1.6,0,0,1,1.62-2.75,1.6,1.6,0,1,1-1.62,2.75Z"/><path class="cls-2" d="M494.41,297.09A1.6,1.6,0,1,1,496,298.7,1.6,1.6,0,0,1,494.41,297.09Z"/><path class="cls-2" d="M544.79,267.76a1.59,1.59,0,1,1-.61,2.17A1.58,1.58,0,0,1,544.79,267.76Z"/><path class="cls-2" d="M198,142.84a2.27,2.27,0,1,1-3.11.8A2.26,2.26,0,0,1,198,142.84Z"/><path class="cls-2" d="M198.33,225.83a2.27,2.27,0,1,1-2.25-2.29A2.27,2.27,0,0,1,198.33,225.83Z"/><path class="cls-2" d="M126.61,267.6a2.27,2.27,0,1,1,.86-3.1A2.28,2.28,0,0,1,126.61,267.6Z"/><path class="cls-2" d="M54.58,226.37a2.27,2.27,0,1,1,3.11-.8A2.27,2.27,0,0,1,54.58,226.37Z"/><path class="cls-2" d="M54.27,143.37a2.27,2.27,0,0,1,4.54,0,2.27,2.27,0,1,1-4.54,0Z"/><path class="cls-2" d="M126,101.61a2.27,2.27,0,1,1-.86,3.09A2.27,2.27,0,0,1,126,101.61Z"/><path class="cls-2" d="M604.61,439.32a1.75,1.75,0,1,1-2.39.62A1.74,1.74,0,0,1,604.61,439.32Z"/><path class="cls-2" d="M604.85,503.07a1.75,1.75,0,1,1-1.73-1.76A1.76,1.76,0,0,1,604.85,503.07Z"/><path class="cls-2" d="M549.76,535.15a1.74,1.74,0,1,1,.67-2.38A1.75,1.75,0,0,1,549.76,535.15Z"/><path class="cls-2" d="M494.44,503.48a1.74,1.74,0,1,1,2.39-.61A1.74,1.74,0,0,1,494.44,503.48Z"/><path class="cls-2" d="M494.2,439.74a1.75,1.75,0,1,1,1.73,1.76A1.74,1.74,0,0,1,494.2,439.74Z"/><path class="cls-2" d="M549.29,407.66a1.74,1.74,0,0,1,1.71,3,1.74,1.74,0,1,1-1.71-3Z"/><path class="cls-2" d="M338.49,381.84a3.93,3.93,0,1,1-5.53-.48A3.92,3.92,0,0,1,338.49,381.84Z"/><path class="cls-2" d="M291.47,517.23a3.92,3.92,0,1,1-2.35-5A3.93,3.93,0,0,1,291.47,517.23Z"/><path class="cls-2" d="M150.71,544.2a3.92,3.92,0,1,1,3.18-4.54A3.91,3.91,0,0,1,150.71,544.2Z"/><path class="cls-2" d="M57,435.79a3.92,3.92,0,1,1,5.53.48A3.92,3.92,0,0,1,57,435.79Z"/><path class="cls-2" d="M104,300.41a3.92,3.92,0,1,1,2.35,5A3.92,3.92,0,0,1,104,300.41Z"/><path class="cls-2" d="M244.75,273.43a3.92,3.92,0,1,1-3.18,4.55A3.91,3.91,0,0,1,244.75,273.43Z"/><path class="cls-2" d="M1035.29,772.87a3.51,3.51,0,1,1,4.81-1.24A3.52,3.52,0,0,1,1035.29,772.87Z"/><path class="cls-2" d="M1034.81,644.59a3.51,3.51,0,1,1,3.47,3.54A3.51,3.51,0,0,1,1034.81,644.59Z"/><path class="cls-2" d="M1145.66,580a3.51,3.51,0,1,1-1.33,4.78A3.52,3.52,0,0,1,1145.66,580Z"/><path class="cls-2" d="M1257,643.75a3.51,3.51,0,1,1-4.81,1.24A3.52,3.52,0,0,1,1257,643.75Z"/><path class="cls-2" d="M1257.48,772a3.51,3.51,0,1,1-3.47-3.55A3.51,3.51,0,0,1,1257.48,772Z"/><path class="cls-2" d="M1146.62,836.59a3.51,3.51,0,1,1,1.34-4.78A3.5,3.5,0,0,1,1146.62,836.59Z"/><path class="cls-2" d="M1158.16,608.71a3,3,0,1,1,4-1.05A3,3,0,0,1,1158.16,608.71Z"/><path class="cls-2" d="M1157.76,500.75a3,3,0,1,1,2.92,3A2.95,2.95,0,0,1,1157.76,500.75Z"/><path class="cls-2" d="M1251.05,446.42a3,3,0,1,1-1.12,4A3,3,0,0,1,1251.05,446.42Z"/><path class="cls-2" d="M1344.75,500.05a3,3,0,1,1-4,1A3,3,0,0,1,1344.75,500.05Z"/><path class="cls-2" d="M1345.15,608a3,3,0,1,1-2.92-3A2.95,2.95,0,0,1,1345.15,608Z"/><path class="cls-2" d="M1251.86,662.33a3,3,0,1,1,1.12-4A2.94,2.94,0,0,1,1251.86,662.33Z"/><path class="cls-2" d="M1156,568.41a2.63,2.63,0,1,1,3.6-.93A2.64,2.64,0,0,1,1156,568.41Z"/><path class="cls-2" d="M1155.67,472.38a2.63,2.63,0,1,1,2.6,2.65A2.63,2.63,0,0,1,1155.67,472.38Z"/><path class="cls-2" d="M1238.65,424.06a2.63,2.63,0,1,1-1,3.58A2.62,2.62,0,0,1,1238.65,424.06Z"/><path class="cls-2" d="M1322,471.76a2.62,2.62,0,1,1-3.59.92A2.63,2.63,0,0,1,1322,471.76Z"/><path class="cls-2" d="M1322.35,567.79a2.63,2.63,0,1,1-2.6-2.66A2.62,2.62,0,0,1,1322.35,567.79Z"/><path class="cls-2" d="M1239.37,616.11a2.63,2.63,0,1,1,1-3.58A2.63,2.63,0,0,1,1239.37,616.11Z"/><path class="cls-2" d="M1242.48,453.53a1.15,1.15,0,0,1,1.17-2,1.15,1.15,0,1,1-1.17,2Z"/><path class="cls-2" d="M1242.32,411.43a1.16,1.16,0,0,1,2.31,0,1.16,1.16,0,0,1-2.31,0Z"/><path class="cls-2" d="M1278.7,390.25a1.15,1.15,0,0,1,1.57.44,1.15,1.15,0,0,1-2,1.13A1.16,1.16,0,0,1,1278.7,390.25Z"/><path class="cls-2" d="M1315.23,411.16a1.15,1.15,0,1,1-1.17,2,1.15,1.15,0,0,1,1.17-2Z"/><path class="cls-2" d="M1315.39,453.25a1.15,1.15,0,0,1-1.16,1.14,1.15,1.15,0,1,1,0-2.3A1.15,1.15,0,0,1,1315.39,453.25Z"/><path class="cls-2" d="M1279,474.44a1.16,1.16,0,1,1,.43-1.57A1.16,1.16,0,0,1,1279,474.44Z"/><path class="cls-2" d="M880.09,515.29a2.92,2.92,0,1,1,4-1A2.92,2.92,0,0,1,880.09,515.29Z"/><path class="cls-2" d="M879.69,408.53a2.92,2.92,0,1,1,2.89,3A2.92,2.92,0,0,1,879.69,408.53Z"/><path class="cls-2" d="M971.94,354.81a2.92,2.92,0,1,1-1.11,4A2.92,2.92,0,0,1,971.94,354.81Z"/><path class="cls-2" d="M1064.6,407.84a2.92,2.92,0,1,1-4,1A2.93,2.93,0,0,1,1064.6,407.84Z"/><path class="cls-2" d="M1065,514.59a2.92,2.92,0,1,1-2.9-3A2.93,2.93,0,0,1,1065,514.59Z"/><path class="cls-2" d="M972.74,568.32a2.92,2.92,0,1,1,1.11-4A2.93,2.93,0,0,1,972.74,568.32Z"/><path class="cls-2" d="M838.12,663.46a4.41,4.41,0,1,1,6-1.55A4.4,4.4,0,0,1,838.12,663.46Z"/><path class="cls-2" d="M837.52,502.43a4.41,4.41,0,1,1,4.36,4.45A4.4,4.4,0,0,1,837.52,502.43Z"/><path class="cls-2" d="M976.67,421.4a4.4,4.4,0,1,1-1.67,6A4.4,4.4,0,0,1,976.67,421.4Z"/><path class="cls-2" d="M1116.43,501.39a4.41,4.41,0,1,1-6,1.55A4.41,4.41,0,0,1,1116.43,501.39Z"/><path class="cls-2" d="M1117,662.42a4.41,4.41,0,1,1-4.36-4.45A4.42,4.42,0,0,1,1117,662.42Z"/><path class="cls-2" d="M977.88,743.45a4.4,4.4,0,1,1,1.67-6A4.41,4.41,0,0,1,977.88,743.45Z"/><path class="cls-2" d="M687,549.45a1.05,1.05,0,1,1,1.44-.37A1.06,1.06,0,0,1,687,549.45Z"/><path class="cls-2" d="M686.86,511.12a1,1,0,0,1,2.09,0,1,1,0,1,1-2.09,0Z"/><path class="cls-2" d="M720,491.84a1,1,0,1,1-.4,1.42A1,1,0,0,1,720,491.84Z"/><path class="cls-2" d="M753.24,510.87a1.05,1.05,0,1,1-1.44.37A1.06,1.06,0,0,1,753.24,510.87Z"/><path class="cls-2" d="M753.38,549.2a1,1,0,1,1-1-1.06A1,1,0,0,1,753.38,549.2Z"/><path class="cls-2" d="M720.26,568.49a1,1,0,1,1,.4-1.43A1.06,1.06,0,0,1,720.26,568.49Z"/><path class="cls-2" d="M747.14,501.36a1,1,0,1,1,1.37-.35A1,1,0,0,1,747.14,501.36Z"/><path class="cls-2" d="M747,464.92a1,1,0,1,1,1,1A1,1,0,0,1,747,464.92Z"/><path class="cls-2" d="M778.49,446.58a1,1,0,0,1,1.36.38,1,1,0,0,1-1.73,1A1,1,0,0,1,778.49,446.58Z"/><path class="cls-2" d="M810.12,464.68a1,1,0,1,1-1.36.35A1,1,0,0,1,810.12,464.68Z"/><path class="cls-2" d="M810.26,501.12a1,1,0,1,1-1-1A1,1,0,0,1,810.26,501.12Z"/><path class="cls-2" d="M778.77,519.46a1,1,0,1,1,.38-1.36A1,1,0,0,1,778.77,519.46Z"/><path class="cls-2" d="M570.22,445.1a2.57,2.57,0,1,0,3.5,1A2.58,2.58,0,0,0,570.22,445.1Z"/><path class="cls-2" d="M568,539.1a2.57,2.57,0,1,0,2.59-2.54A2.56,2.56,0,0,0,568,539.1Z"/><path class="cls-2" d="M648.3,588a2.57,2.57,0,1,0-.91-3.52A2.57,2.57,0,0,0,648.3,588Z"/><path class="cls-2" d="M730.81,543a2.57,2.57,0,1,0-3.5-1A2.57,2.57,0,0,0,730.81,543Z"/><path class="cls-2" d="M733,449a2.57,2.57,0,1,0-2.59,2.54A2.56,2.56,0,0,0,733,449Z"/><path class="cls-2" d="M652.74,400a2.57,2.57,0,1,0,.9,3.53A2.59,2.59,0,0,0,652.74,400Z"/><path class="cls-2" d="M298.52,190.52a1.3,1.3,0,1,0,1.78.5A1.3,1.3,0,0,0,298.52,190.52Z"/><path class="cls-2" d="M297.4,238.14a1.3,1.3,0,1,0,1.31-1.29A1.29,1.29,0,0,0,297.4,238.14Z"/><path class="cls-2" d="M338.07,262.92a1.3,1.3,0,1,0-.46-1.78A1.31,1.31,0,0,0,338.07,262.92Z"/><path class="cls-2" d="M379.87,240.09a1.3,1.3,0,1,0-1.28-2.27,1.3,1.3,0,0,0,1.28,2.27Z"/><path class="cls-2" d="M381,192.47a1.31,1.31,0,1,0-1.32,1.29A1.3,1.3,0,0,0,381,192.47Z"/><path class="cls-2" d="M340.32,167.69a1.3,1.3,0,1,0,.46,1.78A1.29,1.29,0,0,0,340.32,167.69Z"/><path class="cls-2" d="M1082.59,806.47a1.74,1.74,0,1,1,1.77-3,1.74,1.74,0,1,1-1.77,3Z"/><path class="cls-2" d="M1082.35,742.74a1.75,1.75,0,1,1,1.72,1.76A1.75,1.75,0,0,1,1082.35,742.74Z"/><path class="cls-2" d="M1137.42,710.67a1.74,1.74,0,1,1-.66,2.37A1.74,1.74,0,0,1,1137.42,710.67Z"/><path class="cls-2" d="M1192.74,742.33a1.74,1.74,0,1,1-2.39.61A1.74,1.74,0,0,1,1192.74,742.33Z"/><path class="cls-2" d="M1193,806.06a1.75,1.75,0,1,1-1.73-1.76A1.75,1.75,0,0,1,1193,806.06Z"/><path class="cls-2" d="M1137.9,838.13a1.74,1.74,0,1,1,.66-2.37A1.73,1.73,0,0,1,1137.9,838.13Z"/><path class="cls-2" d="M777.2,503.21a1.74,1.74,0,1,1,2.38-.61A1.73,1.73,0,0,1,777.2,503.21Z"/><path class="cls-2" d="M777,439.52a1.74,1.74,0,1,1,1.72,1.76A1.74,1.74,0,0,1,777,439.52Z"/><path class="cls-2" d="M832,407.46a1.74,1.74,0,1,1-.66,2.37A1.75,1.75,0,0,1,832,407.46Z"/><path class="cls-2" d="M887.29,439.1a1.74,1.74,0,1,1-2.39.62A1.74,1.74,0,0,1,887.29,439.1Z"/><path class="cls-2" d="M887.53,502.8A1.75,1.75,0,1,1,885.8,501,1.75,1.75,0,0,1,887.53,502.8Z"/><path class="cls-2" d="M832.48,534.86a1.74,1.74,0,1,1,.66-2.38A1.75,1.75,0,0,1,832.48,534.86Z"/></g><path class="cls-2" d="M358.91,290.25a6.78,6.78,0,1,1-9.28,2.39A6.78,6.78,0,0,1,358.91,290.25Z"/><path class="cls-2" d="M361.74,448.56A7.79,7.79,0,1,1,354,440.7,7.8,7.8,0,0,1,361.74,448.56Z"/><path class="cls-2" d="M224.81,529.74a7.31,7.31,0,1,1,2.77-10A7.31,7.31,0,0,1,224.81,529.74Z"/><path class="cls-2" d="M87.45,450.16a5,5,0,1,1,6.83-1.76A5,5,0,0,1,87.45,450.16Z"/><path class="cls-2" d="M84.71,293.39a6.79,6.79,0,1,1,6.72,6.85A6.8,6.8,0,0,1,84.71,293.39Z"/><path class="cls-2" d="M220.59,212.11a7.42,7.42,0,1,1-2.81,10.1A7.42,7.42,0,0,1,220.59,212.11Z"/><path class="cls-2" d="M173.77,24.42a2.31,2.31,0,1,1-3.17.81A2.3,2.3,0,0,1,173.77,24.42Z"/><circle class="cls-2" cx="172.11" cy="75.06" r="1.49"/><path class="cls-2" d="M131,101.13a2.48,2.48,0,1,1,.94-3.38A2.49,2.49,0,0,1,131,101.13Z"/><path class="cls-2" d="M86.91,75.8a1.83,1.83,0,1,1,2.51-.64A1.84,1.84,0,0,1,86.91,75.8Z"/><path class="cls-2" d="M86.17,25.55a2.15,2.15,0,1,1,2.13,2.17A2.15,2.15,0,0,1,86.17,25.55Z"/><path class="cls-2" d="M129.88.21a1.67,1.67,0,1,1-.63,2.27A1.67,1.67,0,0,1,129.88.21Z"/><path class="cls-2" d="M224.54,101a3.08,3.08,0,1,1-4.23,1.08A3.08,3.08,0,0,1,224.54,101Z"/><path class="cls-2" d="M226.61,189.8a4.5,4.5,0,1,1-4.45-4.54A4.49,4.49,0,0,1,226.61,189.8Z"/><path class="cls-2" d="M149,235.42a3.84,3.84,0,1,1,1.46-5.23A3.85,3.85,0,0,1,149,235.42Z"/><path class="cls-2" d="M71.24,191.16a3.36,3.36,0,1,1,4.6-1.18A3.36,3.36,0,0,1,71.24,191.16Z"/><path class="cls-2" d="M69.09,102.1a4.71,4.71,0,1,1,4.66,4.76A4.72,4.72,0,0,1,69.09,102.1Z"/><path class="cls-2" d="M146.53,55.79a4.64,4.64,0,1,1-1.76,6.32A4.64,4.64,0,0,1,146.53,55.79Z"/><path class="cls-2" d="M376.18,433.3a2.43,2.43,0,1,1-3.33.85A2.43,2.43,0,0,1,376.18,433.3Z"/><path class="cls-2" d="M377.17,505.24a2.92,2.92,0,1,1-2.89-2.95A2.93,2.93,0,0,1,377.17,505.24Z"/><path class="cls-2" d="M315.33,542.9a3.87,3.87,0,1,1,1.47-5.27A3.87,3.87,0,0,1,315.33,542.9Z"/><path class="cls-2" d="M251.85,506.47a2.86,2.86,0,1,1,3.92-1A2.85,2.85,0,0,1,251.85,506.47Z"/><path class="cls-2" d="M250.64,434.15a3.36,3.36,0,1,1,3.33,3.4A3.37,3.37,0,0,1,250.64,434.15Z"/><path class="cls-2" d="M313.48,397.5a2.73,2.73,0,1,1-1,3.72A2.72,2.72,0,0,1,313.48,397.5Z"/><path class="cls-2" d="M430.84,264.83a5.45,5.45,0,1,1-7.46,1.92A5.45,5.45,0,0,1,430.84,264.83Z"/><path class="cls-2" d="M432.77,379.79a5.8,5.8,0,1,1-5.74-5.85A5.79,5.79,0,0,1,432.77,379.79Z"/><path class="cls-2" d="M332.69,436.9a3.46,3.46,0,1,1,1.31-4.72A3.47,3.47,0,0,1,332.69,436.9Z"/><path class="cls-2" d="M234.41,380.68a3.31,3.31,0,1,1,4.53-1.16A3.3,3.3,0,0,1,234.41,380.68Z"/><path class="cls-2" d="M233.56,267.59a3.63,3.63,0,1,1,3.59,3.66A3.63,3.63,0,0,1,233.56,267.59Z"/><path class="cls-2" d="M331.46,210.43a3.49,3.49,0,1,1-1.32,4.75A3.49,3.49,0,0,1,331.46,210.43Z"/><path class="cls-2" d="M514.84,235.83a2.74,2.74,0,1,1-3.75,1A2.73,2.73,0,0,1,514.84,235.83Z"/><path class="cls-2" d="M515.53,308a2.78,2.78,0,1,1-2.75-2.8A2.78,2.78,0,0,1,515.53,308Z"/><path class="cls-2" d="M453.35,344.82a2.87,2.87,0,1,1,1.08-3.9A2.87,2.87,0,0,1,453.35,344.82Z"/><path class="cls-2" d="M390.69,308.72a2.21,2.21,0,1,1,3-.78A2.22,2.22,0,0,1,390.69,308.72Z"/><path class="cls-2" d="M389.67,237a2.84,2.84,0,1,1,2.81,2.87A2.85,2.85,0,0,1,389.67,237Z"/><path class="cls-2" d="M451.64,199.7a3.42,3.42,0,1,1-1.29,4.66A3.43,3.43,0,0,1,451.64,199.7Z"/><path class="cls-2" d="M560.19,348a1.37,1.37,0,1,1-1.87.48A1.37,1.37,0,0,1,560.19,348Z"/><path class="cls-2" d="M560.46,393.05a1.41,1.41,0,1,1-1.39-1.42A1.41,1.41,0,0,1,560.46,393.05Z"/><path class="cls-2" d="M521.55,415.93a1.5,1.5,0,1,1,.57-2.05A1.51,1.51,0,0,1,521.55,415.93Z"/><path class="cls-2" d="M482,394a1.95,1.95,0,1,1,2.67-.69A1.95,1.95,0,0,1,482,394Z"/><path class="cls-2" d="M482,348.36a1.46,1.46,0,0,1,1.47-1.44,1.45,1.45,0,0,1,0,2.9A1.46,1.46,0,0,1,482,348.36Z"/><path class="cls-2" d="M520.75,325.13a1.91,1.91,0,1,1-.73,2.6A1.91,1.91,0,0,1,520.75,325.13Z"/><path class="cls-2" d="M572.54,281.37a1.69,1.69,0,1,1-1.72,2.91,1.69,1.69,0,1,1,1.72-2.91Z"/><path class="cls-2" d="M573.45,330.48a2.25,2.25,0,1,1-2.22-2.27A2.25,2.25,0,0,1,573.45,330.48Z"/><path class="cls-2" d="M530.67,355.53a1.92,1.92,0,0,1-1.89-3.35,1.92,1.92,0,0,1,1.89,3.35Z"/><path class="cls-2" d="M487.56,331.58a2.26,2.26,0,1,1,3.09-.8A2.26,2.26,0,0,1,487.56,331.58Z"/><path class="cls-2" d="M487,282a2.24,2.24,0,1,1,2.21,2.26A2.23,2.23,0,0,1,487,282Z"/><path class="cls-2" d="M529.41,256.38a2.55,2.55,0,1,1-1,3.48A2.55,2.55,0,0,1,529.41,256.38Z"/><path class="cls-2" d="M101.52,117.6a2.82,2.82,0,1,1-3.87,1A2.82,2.82,0,0,1,101.52,117.6Z"/><path class="cls-2" d="M101.28,175.76A1.75,1.75,0,1,1,99.55,174,1.74,1.74,0,0,1,101.28,175.76Z"/><path class="cls-2" d="M52.32,205.45a2.68,2.68,0,1,1,1-3.64A2.68,2.68,0,0,1,52.32,205.45Z"/><path class="cls-2" d="M1.49,177.4a3,3,0,1,1,4.16-1.07A3,3,0,0,1,1.49,177.4Z"/><path class="cls-2" d="M1.53,119.05a2.06,2.06,0,1,1,2,2.08A2.06,2.06,0,0,1,1.53,119.05Z"/><path class="cls-2" d="M51.34,90.32a1.58,1.58,0,1,1-.6,2.15A1.58,1.58,0,0,1,51.34,90.32Z"/><path class="cls-2" d="M659.56,486.9a2.53,2.53,0,1,1-3.47.89A2.54,2.54,0,0,1,659.56,486.9Z"/><path class="cls-2" d="M660.33,566.37a2.83,2.83,0,1,1-2.8-2.86A2.83,2.83,0,0,1,660.33,566.37Z"/><path class="cls-2" d="M591.57,606.74a2.79,2.79,0,1,1,1.06-3.79A2.78,2.78,0,0,1,591.57,606.74Z"/><path class="cls-2" d="M522.54,566.93a2.22,2.22,0,1,1,3-.78A2.23,2.23,0,0,1,522.54,566.93Z"/><path class="cls-2" d="M520.65,487.71a3.79,3.79,0,1,1,3.75,3.83A3.79,3.79,0,0,1,520.65,487.71Z"/><path class="cls-2" d="M589.71,446.19a4.12,4.12,0,1,1-1.57,5.62A4.13,4.13,0,0,1,589.71,446.19Z"/><path class="cls-2" d="M523,392.46a3.92,3.92,0,1,1-5.37,1.38A3.93,3.93,0,0,1,523,392.46Z"/><path class="cls-2" d="M523.3,474a3.08,3.08,0,1,1-3-3.1A3.08,3.08,0,0,1,523.3,474Z"/><path class="cls-2" d="M453.76,515a3.15,3.15,0,1,1,1.19-4.3A3.16,3.16,0,0,1,453.76,515Z"/><path class="cls-2" d="M383.43,475.19a3,3,0,1,1,4.15-1.07A3,3,0,0,1,383.43,475.19Z"/><path class="cls-2" d="M383.2,394.47a2.54,2.54,0,1,1,2.52,2.56A2.55,2.55,0,0,1,383.2,394.47Z"/><path class="cls-2" d="M452.05,353.1a3.47,3.47,0,1,1-1.31,4.72A3.47,3.47,0,0,1,452.05,353.1Z"/><path class="cls-2" d="M546.2,442.27a1.61,1.61,0,1,1-2.21.57A1.62,1.62,0,0,1,546.2,442.27Z"/><path class="cls-2" d="M546.9,489.2a2,2,0,1,1-1.95-2A2,2,0,0,1,546.9,489.2Z"/><path class="cls-2" d="M506.28,513.33a2,2,0,1,1,.78-2.79A2,2,0,0,1,506.28,513.33Z"/><path class="cls-2" d="M465.37,489.6a1.4,1.4,0,1,1,1.43-2.41,1.4,1.4,0,0,1-1.43,2.41Z"/><path class="cls-2" d="M464.86,442.86a1.68,1.68,0,1,1,3.35,0,1.68,1.68,0,0,1-3.35,0Z"/><path class="cls-2" d="M505.42,419.16a1.55,1.55,0,1,1-.58,2.11A1.55,1.55,0,0,1,505.42,419.16Z"/><path class="cls-2" d="M201.8,215.28a3.46,3.46,0,1,1-4.73,1.22A3.46,3.46,0,0,1,201.8,215.28Z"/><path class="cls-2" d="M201.55,294.77a2.27,2.27,0,1,1-2.24-2.29A2.27,2.27,0,0,1,201.55,294.77Z"/><path class="cls-2" d="M134.23,335.12a3.19,3.19,0,1,1,1.21-4.35A3.2,3.2,0,0,1,134.23,335.12Z"/><path class="cls-2" d="M65,296.42a3.47,3.47,0,1,1,4.74-1.22A3.46,3.46,0,0,1,65,296.42Z"/><path class="cls-2" d="M64.59,216.92a3,3,0,1,1,2.94,3A3,3,0,0,1,64.59,216.92Z"/><path class="cls-2" d="M133.13,177.49a2.15,2.15,0,1,1-.82,2.92A2.14,2.14,0,0,1,133.13,177.49Z"/><path class="cls-2" d="M213,390.11a4.81,4.81,0,1,1-6.6,1.7A4.82,4.82,0,0,1,213,390.11Z"/><path class="cls-2" d="M214.56,487.93a5,5,0,1,1-4.93-5A5,5,0,0,1,214.56,487.93Z"/><path class="cls-2" d="M130.36,538a4.74,4.74,0,1,1,1.8-6.45A4.73,4.73,0,0,1,130.36,538Z"/><path class="cls-2" d="M45.61,489.33a3.56,3.56,0,1,1,4.87-1.25A3.55,3.55,0,0,1,45.61,489.33Z"/><path class="cls-2" d="M43.46,392.6a4.89,4.89,0,1,1,4.84,4.94A4.89,4.89,0,0,1,43.46,392.6Z"/><path class="cls-2" d="M127.78,342.9a4.3,4.3,0,1,1-1.63,5.85A4.3,4.3,0,0,1,127.78,342.9Z"/><path class="cls-2" d="M986.17,653.57a3.42,3.42,0,1,1,4.69-1.2A3.42,3.42,0,0,1,986.17,653.57Z"/><path class="cls-2" d="M985.11,549.63a3.81,3.81,0,1,1,3.77,3.84A3.81,3.81,0,0,1,985.11,549.63Z"/><path class="cls-2" d="M1074.32,495.58a5.14,5.14,0,1,1-2,7A5.14,5.14,0,0,1,1074.32,495.58Z"/><path class="cls-2" d="M1165.31,548.82a3,3,0,1,1-4.11,1.06A3,3,0,0,1,1165.31,548.82Z"/><path class="cls-2" d="M1167.35,652.41a4.58,4.58,0,1,1-4.53-4.62A4.58,4.58,0,0,1,1167.35,652.41Z"/><path class="cls-2" d="M1077.05,705.89a4.5,4.5,0,1,1,1.71-6.13A4.49,4.49,0,0,1,1077.05,705.89Z"/><path class="cls-2" d="M1119.66,764.2a2.17,2.17,0,1,1,3-.77A2.17,2.17,0,0,1,1119.66,764.2Z"/><path class="cls-2" d="M1118.11,699.13a3.28,3.28,0,1,1,3.24,3.31A3.29,3.29,0,0,1,1118.11,699.13Z"/><path class="cls-2" d="M1175.11,665.83a2.64,2.64,0,1,1-1,3.59A2.63,2.63,0,0,1,1175.11,665.83Z"/><path class="cls-2" d="M1231.86,698.45a2.09,2.09,0,1,1-2.86.74A2.09,2.09,0,0,1,1231.86,698.45Z"/><path class="cls-2" d="M1233.19,763.45a3,3,0,1,1-3-3.06A3,3,0,0,1,1233.19,763.45Z"/><path class="cls-2" d="M1176.19,796.29a2.11,2.11,0,1,1,.8-2.87A2.1,2.1,0,0,1,1176.19,796.29Z"/><path class="cls-2" d="M1253.56,775.82a5,5,0,1,1,6.81-1.75A5,5,0,0,1,1253.56,775.82Z"/><path class="cls-2" d="M1252.81,671.29a4.28,4.28,0,1,1,4.23,4.32A4.28,4.28,0,0,1,1252.81,671.29Z"/><path class="cls-2" d="M1342.44,618.68A3.92,3.92,0,1,1,1341,624,3.91,3.91,0,0,1,1342.44,618.68Z"/><path class="cls-2" d="M1433.5,668.25a5.59,5.59,0,1,1-7.65,2A5.6,5.6,0,0,1,1433.5,668.25Z"/><path class="cls-2" d="M1433.31,773.3a3.65,3.65,0,1,1-3.61-3.69A3.65,3.65,0,0,1,1433.31,773.3Z"/><path class="cls-2" d="M1344.78,826.78a4.9,4.9,0,1,1,1.87-6.68A4.89,4.89,0,0,1,1344.78,826.78Z"/><path class="cls-2" d="M1227.13,594.59a3.15,3.15,0,1,1,4.32-1.11A3.16,3.16,0,0,1,1227.13,594.59Z"/><path class="cls-2" d="M1226.2,532.06a3.13,3.13,0,1,1,3.1,3.15A3.13,3.13,0,0,1,1226.2,532.06Z"/><path class="cls-2" d="M1280.33,500.81a2.18,2.18,0,1,1-.83,3A2.18,2.18,0,0,1,1280.33,500.81Z"/><path class="cls-2" d="M1334.49,530.39a3.17,3.17,0,1,1-4.34,1.12A3.17,3.17,0,0,1,1334.49,530.39Z"/><path class="cls-2" d="M1334.19,592.92a1.91,1.91,0,1,1-1.89-1.92A1.91,1.91,0,0,1,1334.19,592.92Z"/><path class="cls-2" d="M1281.8,625.09a3.23,3.23,0,1,1,1.22-4.4A3.23,3.23,0,0,1,1281.8,625.09Z"/><path class="cls-2" d="M1241.63,539.78a1.27,1.27,0,1,1,1.73-.45A1.27,1.27,0,0,1,1241.63,539.78Z"/><path class="cls-2" d="M1240.6,495.84a2.1,2.1,0,1,1,2.08,2.11A2.1,2.1,0,0,1,1240.6,495.84Z"/><path class="cls-2" d="M1279.26,473.49a1.52,1.52,0,1,1-.58,2.07A1.51,1.51,0,0,1,1279.26,473.49Z"/><path class="cls-2" d="M1318,494.7a2.2,2.2,0,1,1-3,.77A2.19,2.19,0,0,1,1318,494.7Z"/><path class="cls-2" d="M1318.19,539.44a1.74,1.74,0,1,1-1.72-1.76A1.73,1.73,0,0,1,1318.19,539.44Z"/><path class="cls-2" d="M1280.08,562.11a1.89,1.89,0,1,1,.71-2.57A1.89,1.89,0,0,1,1280.08,562.11Z"/><path class="cls-2" d="M1280.62,442.75a1.8,1.8,0,1,1,2.46-.63A1.8,1.8,0,0,1,1280.62,442.75Z"/><path class="cls-2" d="M1280.49,398.36a1.48,1.48,0,1,1,1.46,1.49A1.47,1.47,0,0,1,1280.49,398.36Z"/><path class="cls-2" d="M1318.35,375.71a1.86,1.86,0,1,1-.7,2.53A1.87,1.87,0,0,1,1318.35,375.71Z"/><path class="cls-2" d="M1357,397.6a1.76,1.76,0,1,1-2.4.62A1.75,1.75,0,0,1,1357,397.6Z"/><path class="cls-2" d="M1357.36,442a1.64,1.64,0,0,1-1.66,1.63,1.65,1.65,0,1,1,0-3.29A1.64,1.64,0,0,1,1357.36,442Z"/><path class="cls-2" d="M1319,464.05a1.22,1.22,0,1,1,.47-1.66A1.21,1.21,0,0,1,1319,464.05Z"/><path class="cls-2" d="M986.27,828.71A3.44,3.44,0,1,1,991,827.5,3.45,3.45,0,0,1,986.27,828.71Z"/><path class="cls-2" d="M985.57,759.71a3.11,3.11,0,1,1,3.08,3.14A3.1,3.1,0,0,1,985.57,759.71Z"/><path class="cls-2" d="M1044.82,724.92a2.74,2.74,0,1,1-1,3.73A2.74,2.74,0,0,1,1044.82,724.92Z"/><path class="cls-2" d="M1104.47,758.4a2.88,2.88,0,1,1-3.94,1A2.88,2.88,0,0,1,1104.47,758.4Z"/><path class="cls-2" d="M1104.91,826.91a2.56,2.56,0,1,1-2.53-2.58A2.56,2.56,0,0,1,1104.91,826.91Z"/><path class="cls-2" d="M1046.45,862.14a3.24,3.24,0,1,1,1.23-4.41A3.23,3.23,0,0,1,1046.45,862.14Z"/><path class="cls-2" d="M963.4,782.83a1.77,1.77,0,1,1,2.42-.63A1.78,1.78,0,0,1,963.4,782.83Z"/><path class="cls-2" d="M963.29,743.78a1.39,1.39,0,1,1,1.37,1.4A1.39,1.39,0,0,1,963.29,743.78Z"/><path class="cls-2" d="M996.71,724.23a1.29,1.29,0,1,1-.49,1.76A1.29,1.29,0,0,1,996.71,724.23Z"/><circle class="cls-2" cx="1029.65" cy="744.43" r="1.57" transform="translate(-152.97 279.92) rotate(-14.42)"/><path class="cls-2" d="M1030.52,782a1.25,1.25,0,0,1-2.49,0,1.26,1.26,0,0,1,1.26-1.24A1.24,1.24,0,0,1,1030.52,782Z"/><path class="cls-2" d="M997.61,802.17a2.05,2.05,0,1,1,.78-2.79A2.06,2.06,0,0,1,997.61,802.17Z"/><path class="cls-2" d="M935,495.56a3.42,3.42,0,1,1,4.69-1.2A3.42,3.42,0,0,1,935,495.56Z"/><path class="cls-2" d="M933.73,423.92a3.74,3.74,0,1,1,3.7,3.77A3.74,3.74,0,0,1,933.73,423.92Z"/><path class="cls-2" d="M995.91,387.81a2.76,2.76,0,1,1-1,3.76A2.77,2.77,0,0,1,995.91,387.81Z"/><path class="cls-2" d="M1057.76,422.83a2.68,2.68,0,1,1-3.67.94A2.68,2.68,0,0,1,1057.76,422.83Z"/><path class="cls-2" d="M1058.16,493.82a2.45,2.45,0,1,1-2.42-2.46A2.45,2.45,0,0,1,1058.16,493.82Z"/><path class="cls-2" d="M997.11,529.66a2.44,2.44,0,1,1,.92-3.32A2.45,2.45,0,0,1,997.11,529.66Z"/><path class="cls-2" d="M872.58,655.36A4,4,0,1,1,878,654,4,4,0,0,1,872.58,655.36Z"/><path class="cls-2" d="M869.2,534.15a6.57,6.57,0,1,1,6.5,6.64A6.57,6.57,0,0,1,869.2,534.15Z"/><path class="cls-2" d="M975.5,471.39a5.71,5.71,0,1,1-2.17,7.79A5.71,5.71,0,0,1,975.5,471.39Z"/><path class="cls-2" d="M1082.34,531.74a5.24,5.24,0,1,1-7.17,1.84A5.24,5.24,0,0,1,1082.34,531.74Z"/><path class="cls-2" d="M1084.26,654a5.76,5.76,0,1,1-5.7-5.81A5.75,5.75,0,0,1,1084.26,654Z"/><path class="cls-2" d="M977.91,715.27a4,4,0,1,1,1.5-5.39A4,4,0,0,1,977.91,715.27Z"/><path class="cls-2" d="M860.92,658.94a1.57,1.57,0,1,1,2.16-.55A1.57,1.57,0,0,1,860.92,658.94Z"/><path class="cls-2" d="M859.48,606.6a2.75,2.75,0,1,1,2.72,2.78A2.74,2.74,0,0,1,859.48,606.6Z"/><path class="cls-2" d="M905.57,579.73a2.13,2.13,0,1,1-.81,2.9A2.14,2.14,0,0,1,905.57,579.73Z"/><path class="cls-2" d="M951.83,605.25a2.62,2.62,0,1,1-3.59.92A2.61,2.61,0,0,1,951.83,605.25Z"/><path class="cls-2" d="M952.25,658.49a2.26,2.26,0,1,1-2.24-2.28A2.26,2.26,0,0,1,952.25,658.49Z"/><path class="cls-2" d="M906.36,684.84a1.53,1.53,0,0,1-1.51-2.67,1.53,1.53,0,1,1,1.51,2.67Z"/><path class="cls-2" d="M764.23,595.27a1.15,1.15,0,1,1,1.57-.4A1.15,1.15,0,0,1,764.23,595.27Z"/><path class="cls-2" d="M763.66,558.36a1.52,1.52,0,1,1,1.5,1.53A1.52,1.52,0,0,1,763.66,558.36Z"/><path class="cls-2" d="M795.48,539a2,2,0,1,1-.74,2.68A2,2,0,0,1,795.48,539Z"/><path class="cls-2" d="M828.21,557.57a1.66,1.66,0,0,1-1.69,2.85,1.66,1.66,0,1,1,1.69-2.85Z"/><path class="cls-2" d="M828.58,594.92a1.57,1.57,0,1,1-1.55-1.59A1.57,1.57,0,0,1,828.58,594.92Z"/><path class="cls-2" d="M796.29,613.54a1.13,1.13,0,1,1,.44-1.55A1.14,1.14,0,0,1,796.29,613.54Z"/><path class="cls-2" d="M704.2,547a1.44,1.44,0,0,1-.51-2,1.45,1.45,0,1,1,.51,2Z"/><path class="cls-2" d="M704.34,519.12a.86.86,0,0,1,.86-.85.85.85,0,0,1,.85.87.84.84,0,0,1-.86.84A.86.86,0,0,1,704.34,519.12Z"/><path class="cls-2" d="M727.88,505.09a1.08,1.08,0,1,1-.41,1.47A1.08,1.08,0,0,1,727.88,505.09Z"/><path class="cls-2" d="M751.82,518.8a.91.91,0,1,1-1.25.32A.92.92,0,0,1,751.82,518.8Z"/><path class="cls-2" d="M752.07,546.25a1,1,0,1,1-1-1A1,1,0,0,1,752.07,546.25Z"/><path class="cls-2" d="M728.34,560.16a.95.95,0,0,1-.93-1.65.95.95,0,1,1,.93,1.65Z"/><path class="cls-2" d="M748.05,496.66a1.13,1.13,0,0,1-.4-1.54,1.12,1.12,0,0,1,1.54-.39,1.11,1.11,0,0,1,.39,1.53A1.12,1.12,0,0,1,748.05,496.66Z"/><path class="cls-2" d="M747.12,458.33a1.87,1.87,0,1,1,1.85,1.89A1.87,1.87,0,0,1,747.12,458.33Z"/><path class="cls-2" d="M780.51,438.22a2,2,0,1,1-.77,2.78A2,2,0,0,1,780.51,438.22Z"/><path class="cls-2" d="M814.35,457.85a1.33,1.33,0,1,1-1.83.46A1.33,1.33,0,0,1,814.35,457.85Z"/><path class="cls-2" d="M814.43,496.35a1.13,1.13,0,1,1-1.12-1.14A1.13,1.13,0,0,1,814.43,496.35Z"/><path class="cls-2" d="M781.6,516.15a1.68,1.68,0,1,1,.64-2.29A1.68,1.68,0,0,1,781.6,516.15Z"/><path class="cls-2" d="M652.89,432a1.32,1.32,0,0,0-.5,1.79,1.31,1.31,0,1,0,2.29-1.29A1.32,1.32,0,0,0,652.89,432Z"/><path class="cls-2" d="M651.63,467.1a1.57,1.57,0,1,0,1.58-1.55A1.57,1.57,0,0,0,651.63,467.1Z"/><path class="cls-2" d="M681.61,485.85a1.69,1.69,0,1,0-.59-2.3A1.69,1.69,0,0,0,681.61,485.85Z"/><path class="cls-2" d="M712.85,469.07a1.58,1.58,0,1,0-2.15-.6A1.58,1.58,0,0,0,712.85,469.07Z"/><path class="cls-2" d="M713.41,433.71a1,1,0,1,0-1,1A1,1,0,0,0,713.41,433.71Z"/><path class="cls-2" d="M684.07,414.85a1.82,1.82,0,1,0,.64,2.49A1.81,1.81,0,0,0,684.07,414.85Z"/><path class="cls-2" d="M246.83,164.26a1.57,1.57,0,1,0,2.14.6A1.58,1.58,0,0,0,246.83,164.26Z"/><path class="cls-2" d="M245.91,199.61a1.36,1.36,0,1,0,1.37-1.34A1.35,1.35,0,0,0,245.91,199.61Z"/><path class="cls-2" d="M275.58,218.52a1.87,1.87,0,1,0-.66-2.56A1.87,1.87,0,0,0,275.58,218.52Z"/><path class="cls-2" d="M307,201.71a1.72,1.72,0,1,0-2.34-.65A1.73,1.73,0,0,0,307,201.71Z"/><path class="cls-2" d="M308.23,166.23a1.75,1.75,0,1,0-1.77,1.73A1.75,1.75,0,0,0,308.23,166.23Z"/><path class="cls-2" d="M277.72,148.07a1,1,0,1,0,.35,1.37A1,1,0,0,0,277.72,148.07Z"/><path class="cls-2" d="M1124.26,825.07a2.36,2.36,0,1,1,3.23-.83A2.36,2.36,0,0,1,1124.26,825.07Z"/><path class="cls-2" d="M1123.88,778.58a2,2,0,1,1,2,2A2,2,0,0,1,1123.88,778.58Z"/><path class="cls-2" d="M1164,755.66a1.27,1.27,0,0,1,1.24,2.22,1.27,1.27,0,1,1-1.24-2.22Z"/><path class="cls-2" d="M1204,777.4a2.28,2.28,0,1,1-3.13.81A2.29,2.29,0,0,1,1204,777.4Z"/><path class="cls-2" d="M1204.52,823.82a2.11,2.11,0,1,1-2.08-2.13A2.11,2.11,0,0,1,1204.52,823.82Z"/><path class="cls-2" d="M1164.35,846.76a1.3,1.3,0,1,1,.49-1.76A1.29,1.29,0,0,1,1164.35,846.76Z"/><path class="cls-2" d="M1229.32,892.76a3.45,3.45,0,1,1,4.73-1.22A3.45,3.45,0,0,1,1229.32,892.76Z"/><path class="cls-2" d="M1229.35,812.38a2.5,2.5,0,1,1,2.47,2.53A2.49,2.49,0,0,1,1229.35,812.38Z"/><path class="cls-2" d="M1297.19,770.72a4.2,4.2,0,1,1-1.6,5.72A4.2,4.2,0,0,1,1297.19,770.72Z"/><path class="cls-2" d="M1367.1,811.68a2.39,2.39,0,1,1-3.28.84A2.39,2.39,0,0,1,1367.1,811.68Z"/><path class="cls-2" d="M1368.74,891.16a3.63,3.63,0,1,1-3.59-3.67A3.63,3.63,0,0,1,1368.74,891.16Z"/><path class="cls-2" d="M1299.1,931.61a2.83,2.83,0,1,1,1.07-3.85A2.82,2.82,0,0,1,1299.1,931.61Z"/><path class="cls-2" d="M554.86,417.57a2.13,2.13,0,1,0,2.9.81A2.12,2.12,0,0,0,554.86,417.57Z"/><path class="cls-2" d="M553.08,465.53a2.37,2.37,0,1,0,2.39-2.35A2.36,2.36,0,0,0,553.08,465.53Z"/><path class="cls-2" d="M594.13,490.77a2,2,0,1,0-.72-2.79A2,2,0,0,0,594.13,490.77Z"/><path class="cls-2" d="M636.19,467.84a1.72,1.72,0,0,0,.65-2.33,1.71,1.71,0,1,0-.65,2.33Z"/><path class="cls-2" d="M637.21,420.23a1.41,1.41,0,0,0-1.39-1.41,1.4,1.4,0,0,0,0,2.8A1.41,1.41,0,0,0,637.21,420.23Z"/><path class="cls-2" d="M596.76,395.62a1.32,1.32,0,1,0,.47,1.81A1.32,1.32,0,0,0,596.76,395.62Z"/><path class="cls-2" d="M818.56,541.08a2.65,2.65,0,1,1,3.64-.93A2.66,2.66,0,0,1,818.56,541.08Z"/><path class="cls-2" d="M818.24,475.92a2.3,2.3,0,1,1,2.27,2.33A2.3,2.3,0,0,1,818.24,475.92Z"/><path class="cls-2" d="M874.11,443a2.37,2.37,0,1,1-.89,3.23A2.37,2.37,0,0,1,874.11,443Z"/><path class="cls-2" d="M930.9,474.47a3,3,0,1,1-4.07,1A3,3,0,0,1,930.9,474.47Z"/><path class="cls-2" d="M930.54,539.89a1.78,1.78,0,1,1-1.76-1.78A1.78,1.78,0,0,1,930.54,539.89Z"/><path class="cls-2" d="M875.1,572.66a2.18,2.18,0,1,1,.82-3A2.18,2.18,0,0,1,875.1,572.66Z"/><path class="cls-2" d="M780,493.17a2.46,2.46,0,1,1,3.36-.87A2.46,2.46,0,0,1,780,493.17Z"/><path class="cls-2" d="M779.39,446.27a2.27,2.27,0,1,1,2.25,2.29A2.27,2.27,0,0,1,779.39,446.27Z"/><path class="cls-2" d="M819.44,422.16a2.45,2.45,0,1,1-.93,3.34A2.46,2.46,0,0,1,819.44,422.16Z"/><path class="cls-2" d="M860.41,445a2.4,2.4,0,1,1-3.28.84A2.39,2.39,0,0,1,860.41,445Z"/><path class="cls-2" d="M860.1,491.84a1.36,1.36,0,1,1-1.34-1.37A1.35,1.35,0,0,1,860.1,491.84Z"/><path class="cls-2" d="M820.87,515.78a2.26,2.26,0,1,1,.85-3.07A2.27,2.27,0,0,1,820.87,515.78Z"/><path class="cls-2" d="M1107.06,709a3.37,3.37,0,1,1,4.62-1.19A3.37,3.37,0,0,1,1107.06,709Z"/><path class="cls-2" d="M1105.47,630.88a4.05,4.05,0,1,1,4,4.08A4.06,4.06,0,0,1,1105.47,630.88Z"/><path class="cls-2" d="M1173.55,591.32a3,3,0,1,1-1.15,4.12A3,3,0,0,1,1173.55,591.32Z"/><path class="cls-2" d="M1241.16,629.9a2.68,2.68,0,1,1-3.67,1A2.68,2.68,0,0,1,1241.16,629.9Z"/><path class="cls-2" d="M1242.23,707.46a3.18,3.18,0,1,1-3.15-3.21A3.17,3.17,0,0,1,1242.23,707.46Z"/><path class="cls-2" d="M1174.86,746.73a2.69,2.69,0,1,1,1-3.66A2.69,2.69,0,0,1,1174.86,746.73Z"/><path class="cls-2" d="M1096.24,536.85a4.4,4.4,0,1,1,6-1.55A4.39,4.39,0,0,1,1096.24,536.85Z"/><path class="cls-2" d="M1095.16,441a4.24,4.24,0,1,1,4.19,4.27A4.23,4.23,0,0,1,1095.16,441Z"/><path class="cls-2" d="M1177.31,391.72a4.63,4.63,0,1,1-1.76,6.31A4.63,4.63,0,0,1,1177.31,391.72Z"/><path class="cls-2" d="M1261.06,438.86a4.32,4.32,0,1,1-5.92,1.53A4.33,4.33,0,0,1,1261.06,438.86Z"/><path class="cls-2" d="M1261.91,534.69a4,4,0,1,1-3.93-4A4,4,0,0,1,1261.91,534.69Z"/><path class="cls-2" d="M1179.14,582.35a2.82,2.82,0,1,1,1.07-3.85A2.83,2.83,0,0,1,1179.14,582.35Z"/><g class="cls-3"><line class="cls-4" x1="172.59" y1="26.41" x2="130.7" y2="1.66"/><line class="cls-4" x1="172.11" y1="75.06" x2="172.59" y2="26.41"/><line class="cls-4" x1="129.73" y1="98.97" x2="172.11" y2="75.06"/><line class="cls-4" x1="87.84" y1="74.22" x2="129.73" y2="98.97"/><line class="cls-4" x1="88.32" y1="25.57" x2="87.84" y2="74.22"/><line class="cls-4" x1="130.7" y1="1.66" x2="88.32" y2="25.57"/><line class="cls-5" x1="374.94" y1="435.39" x2="314.82" y2="399.88"/><line class="cls-5" x1="374.25" y1="505.21" x2="374.94" y2="435.39"/><line class="cls-5" x1="313.43" y1="539.53" x2="374.25" y2="505.21"/><line class="cls-5" x1="253.31" y1="504.01" x2="313.43" y2="539.53"/><line class="cls-5" x1="254" y1="434.19" x2="253.31" y2="504.01"/><line class="cls-5" x1="314.82" y1="399.88" x2="254" y2="434.19"/><line class="cls-5" x1="513.45" y1="238.19" x2="453.33" y2="202.68"/><line class="cls-5" x1="512.76" y1="308.01" x2="513.45" y2="238.19"/><line class="cls-5" x1="451.94" y1="342.33" x2="512.76" y2="308.01"/><line class="cls-5" x1="391.81" y1="306.81" x2="451.94" y2="342.33"/><line class="cls-5" x1="392.51" y1="236.99" x2="391.81" y2="306.81"/><line class="cls-5" x1="453.33" y1="202.68" x2="392.51" y2="236.99"/><line class="cls-6" x1="571.68" y1="282.83" x2="530.67" y2="258.6"/><line class="cls-6" x1="571.2" y1="330.45" x2="571.68" y2="282.83"/><line class="cls-6" x1="529.72" y1="353.86" x2="571.2" y2="330.45"/><line class="cls-6" x1="488.71" y1="329.63" x2="529.72" y2="353.86"/><line class="cls-6" x1="489.18" y1="282.01" x2="488.71" y2="329.63"/><line class="cls-6" x1="530.67" y1="258.6" x2="489.18" y2="282.01"/><line class="cls-7" x1="100.09" y1="120.03" x2="52.11" y2="91.69"/><line class="cls-7" x1="99.53" y1="175.74" x2="100.09" y2="120.03"/><line class="cls-7" x1="51.01" y1="203.12" x2="99.53" y2="175.74"/><line class="cls-7" x1="3.03" y1="174.79" x2="51.01" y2="203.12"/><line class="cls-7" x1="3.59" y1="119.07" x2="3.03" y2="174.79"/><line class="cls-7" x1="52.11" y1="91.69" x2="3.59" y2="119.07"/><line class="cls-8" x1="545.38" y1="443.66" x2="506.19" y2="420.51"/><line class="cls-8" x1="544.93" y1="489.18" x2="545.38" y2="443.66"/><line class="cls-8" x1="505.28" y1="511.55" x2="544.93" y2="489.18"/><line class="cls-8" x1="466.09" y1="488.4" x2="505.28" y2="511.55"/><line class="cls-8" x1="466.54" y1="442.88" x2="466.09" y2="488.4"/><line class="cls-8" x1="506.19" y1="420.51" x2="466.54" y2="442.88"/><line class="cls-9" x1="200.04" y1="218.26" x2="134.18" y2="179.36"/><line class="cls-9" x1="199.28" y1="294.75" x2="200.04" y2="218.26"/><line class="cls-9" x1="132.66" y1="332.34" x2="199.28" y2="294.75"/><line class="cls-9" x1="66.8" y1="293.44" x2="132.66" y2="332.34"/><line class="cls-9" x1="67.56" y1="216.95" x2="66.8" y2="293.44"/><line class="cls-9" x1="134.18" y1="179.36" x2="67.56" y2="216.95"/></g><g class="cls-10"><line class="cls-11" x1="355.47" y1="296.08" x2="224.24" y2="218.57"/><line class="cls-11" x1="353.95" y1="448.48" x2="355.47" y2="296.08"/><line class="cls-11" x1="221.21" y1="523.37" x2="353.95" y2="448.48"/><line class="cls-11" x1="89.98" y1="445.86" x2="221.21" y2="523.37"/><line class="cls-11" x1="91.5" y1="293.46" x2="89.98" y2="445.86"/><line class="cls-11" x1="224.24" y1="218.57" x2="91.5" y2="293.46"/><line class="cls-12" x1="222.97" y1="103.63" x2="148.81" y2="59.83"/><line class="cls-12" x1="222.11" y1="189.75" x2="222.97" y2="103.63"/><line class="cls-12" x1="147.1" y1="232.07" x2="222.11" y2="189.75"/><line class="cls-12" x1="72.94" y1="188.27" x2="147.1" y2="232.07"/><line class="cls-12" x1="73.8" y1="102.15" x2="72.94" y2="188.27"/><line class="cls-12" x1="148.81" y1="59.83" x2="73.8" y2="102.15"/><line class="cls-13" x1="428.07" y1="269.52" x2="333.18" y2="213.47"/><line class="cls-13" x1="426.98" y1="379.73" x2="428.07" y2="269.52"/><line class="cls-13" x1="330.99" y1="433.88" x2="426.98" y2="379.73"/><line class="cls-13" x1="236.09" y1="377.83" x2="330.99" y2="433.88"/><line class="cls-13" x1="237.19" y1="267.62" x2="236.09" y2="377.83"/><line class="cls-13" x1="333.18" y1="213.47" x2="237.19" y2="267.62"/><line class="cls-14" x1="658.27" y1="489.08" x2="591.74" y2="449.78"/><line class="cls-14" x1="658.27" y1="489.08" x2="657.5" y2="566.35"/><line class="cls-14" x1="590.2" y1="604.31" x2="657.5" y2="566.35"/><line class="cls-14" x1="523.67" y1="565.02" x2="590.2" y2="604.31"/><line class="cls-14" x1="524.44" y1="487.75" x2="523.67" y2="565.02"/><line class="cls-14" x1="591.74" y1="449.78" x2="524.44" y2="487.75"/><line class="cls-15" x1="521" y1="395.84" x2="453.76" y2="356.12"/><line class="cls-15" x1="520.22" y1="473.92" x2="521" y2="395.84"/><line class="cls-15" x1="452.21" y1="512.3" x2="520.22" y2="473.92"/><line class="cls-15" x1="384.97" y1="472.58" x2="452.21" y2="512.3"/><line class="cls-15" x1="385.74" y1="394.49" x2="384.97" y2="472.58"/><line class="cls-15" x1="453.76" y1="356.12" x2="385.74" y2="394.49"/><line class="cls-16" x1="210.51" y1="394.26" x2="129.9" y2="346.64"/><line class="cls-16" x1="209.58" y1="487.88" x2="210.51" y2="394.26"/><line class="cls-16" x1="128.03" y1="533.89" x2="209.58" y2="487.88"/><line class="cls-16" x1="47.42" y1="486.27" x2="128.03" y2="533.89"/><line class="cls-16" x1="48.35" y1="392.65" x2="47.42" y2="486.27"/><line class="cls-16" x1="129.9" y1="346.64" x2="48.35" y2="392.65"/></g><g class="cls-17"><line class="cls-18" x1="559.49" y1="349.13" x2="521.68" y2="326.79"/><line class="cls-18" x1="559.06" y1="393.04" x2="559.49" y2="349.13"/><line class="cls-18" x1="520.81" y1="414.62" x2="559.06" y2="393.04"/><line class="cls-18" x1="483" y1="392.28" x2="520.81" y2="414.62"/><line class="cls-18" x1="483.43" y1="348.37" x2="483" y2="392.28"/><line class="cls-18" x1="521.68" y1="326.79" x2="483.43" y2="348.37"/><line class="cls-19" x1="247.6" y1="165.63" x2="277.21" y2="148.93"/><line class="cls-19" x1="247.26" y1="199.63" x2="247.6" y2="165.63"/><line class="cls-19" x1="276.53" y1="216.92" x2="247.26" y2="199.63"/><line class="cls-19" x1="306.14" y1="200.21" x2="276.53" y2="216.92"/><line class="cls-19" x1="306.48" y1="166.22" x2="306.14" y2="200.21"/><line class="cls-19" x1="277.21" y1="148.93" x2="306.48" y2="166.22"/><line class="cls-14" x1="555.91" y1="419.42" x2="596.09" y2="396.76"/><line class="cls-14" x1="555.45" y1="465.55" x2="555.91" y2="419.42"/><line class="cls-14" x1="595.17" y1="489.02" x2="555.45" y2="465.55"/><line class="cls-14" x1="635.35" y1="466.35" x2="595.17" y2="489.02"/><line class="cls-14" x1="635.81" y1="420.22" x2="635.35" y2="466.35"/><line class="cls-14" x1="596.09" y1="396.76" x2="635.81" y2="420.22"/></g><g class="cls-3"><line class="cls-20" x1="1120.76" y1="762.33" x2="1175.15" y2="794.46"/><line class="cls-20" x1="1121.39" y1="699.16" x2="1120.76" y2="762.33"/><line class="cls-20" x1="1176.4" y1="668.12" x2="1121.39" y2="699.16"/><line class="cls-20" x1="1230.79" y1="700.25" x2="1176.4" y2="668.12"/><line class="cls-20" x1="1230.17" y1="763.42" x2="1230.79" y2="700.25"/><line class="cls-20" x1="1175.15" y1="794.46" x2="1230.17" y2="763.42"/><line class="cls-21" x1="1228.73" y1="591.87" x2="1280.21" y2="622.28"/><line class="cls-21" x1="1229.33" y1="532.09" x2="1228.73" y2="591.87"/><line class="cls-21" x1="1281.4" y1="502.71" x2="1229.33" y2="532.09"/><line class="cls-21" x1="1332.88" y1="533.12" x2="1281.4" y2="502.71"/><line class="cls-21" x1="1332.29" y1="592.9" x2="1332.88" y2="533.12"/><line class="cls-21" x1="1280.21" y1="622.28" x2="1332.29" y2="592.9"/><line class="cls-22" x1="988.02" y1="825.75" x2="1044.86" y2="859.32"/><line class="cls-22" x1="988.68" y1="759.74" x2="988.02" y2="825.75"/><line class="cls-22" x1="1046.17" y1="727.31" x2="988.68" y2="759.74"/><line class="cls-22" x1="1103.01" y1="760.88" x2="1046.17" y2="727.31"/><line class="cls-22" x1="1102.35" y1="826.89" x2="1103.01" y2="760.88"/><line class="cls-22" x1="1044.86" y1="859.32" x2="1102.35" y2="826.89"/><line class="cls-23" x1="936.78" y1="492.62" x2="995.91" y2="527.54"/><line class="cls-23" x1="937.47" y1="423.95" x2="936.78" y2="492.62"/><line class="cls-23" x1="997.27" y1="390.21" x2="937.47" y2="423.95"/><line class="cls-23" x1="1056.4" y1="425.13" x2="997.27" y2="390.21"/><line class="cls-23" x1="1055.71" y1="493.8" x2="1056.4" y2="425.13"/><line class="cls-23" x1="995.91" y1="527.54" x2="1055.71" y2="493.8"/><line class="cls-24" x1="819.91" y1="538.8" x2="874.03" y2="570.76"/><line class="cls-24" x1="820.53" y1="475.95" x2="819.91" y2="538.8"/><line class="cls-24" x1="875.27" y1="445.06" x2="820.53" y2="475.95"/><line class="cls-24" x1="929.39" y1="477.03" x2="875.27" y2="445.06"/><line class="cls-24" x1="928.77" y1="539.88" x2="929.39" y2="477.03"/><line class="cls-24" x1="874.03" y1="570.76" x2="928.77" y2="539.88"/></g><g class="cls-17"><line class="cls-25" x1="1242.27" y1="538.69" x2="1279.15" y2="560.47"/><line class="cls-25" x1="1242.7" y1="495.86" x2="1242.27" y2="538.69"/><line class="cls-25" x1="1280" y1="474.81" x2="1242.7" y2="495.86"/><line class="cls-25" x1="1316.88" y1="496.59" x2="1280" y2="474.81"/><line class="cls-25" x1="1316.46" y1="539.42" x2="1316.88" y2="496.59"/><line class="cls-25" x1="1279.15" y1="560.47" x2="1316.46" y2="539.42"/><line class="cls-25" x1="1281.54" y1="441.21" x2="1318.42" y2="462.99"/><line class="cls-25" x1="1281.96" y1="398.38" x2="1281.54" y2="441.21"/><line class="cls-25" x1="1319.27" y1="377.33" x2="1281.96" y2="398.38"/><line class="cls-25" x1="1356.15" y1="399.11" x2="1319.27" y2="377.33"/><line class="cls-25" x1="1355.72" y1="441.94" x2="1356.15" y2="399.11"/><line class="cls-25" x1="1318.42" y1="462.99" x2="1355.72" y2="441.94"/><line class="cls-26" x1="964.3" y1="781.3" x2="996.6" y2="800.38"/><line class="cls-26" x1="964.67" y1="743.79" x2="964.3" y2="781.3"/><line class="cls-26" x1="997.35" y1="725.35" x2="964.67" y2="743.79"/><line class="cls-26" x1="1029.65" y1="744.43" x2="997.35" y2="725.35"/><line class="cls-26" x1="1029.28" y1="781.95" x2="1029.65" y2="744.43"/><line class="cls-26" x1="996.6" y1="800.38" x2="1029.28" y2="781.95"/><line class="cls-27" x1="861.72" y1="657.59" x2="905.6" y2="683.51"/><line class="cls-27" x1="862.23" y1="606.63" x2="861.72" y2="657.59"/><line class="cls-27" x1="906.62" y1="581.59" x2="862.23" y2="606.63"/><line class="cls-27" x1="950.5" y1="607.51" x2="906.62" y2="581.59"/><line class="cls-27" x1="949.99" y1="658.47" x2="950.5" y2="607.51"/><line class="cls-27" x1="905.6" y1="683.51" x2="949.99" y2="658.47"/><line class="cls-28" x1="764.82" y1="594.28" x2="795.73" y2="612.55"/><line class="cls-28" x1="765.17" y1="558.38" x2="764.82" y2="594.28"/><line class="cls-28" x1="796.45" y1="540.73" x2="765.17" y2="558.38"/><line class="cls-28" x1="827.37" y1="559" x2="796.45" y2="540.73"/><line class="cls-28" x1="827.01" y1="594.9" x2="827.37" y2="559"/><line class="cls-28" x1="795.73" y1="612.55" x2="827.01" y2="594.9"/><line class="cls-29" x1="704.93" y1="545.78" x2="727.88" y2="559.33"/><line class="cls-29" x1="705.2" y1="519.13" x2="704.93" y2="545.78"/><line class="cls-29" x1="728.41" y1="506.03" x2="705.2" y2="519.13"/><line class="cls-29" x1="751.35" y1="519.59" x2="728.41" y2="506.03"/><line class="cls-29" x1="751.09" y1="546.24" x2="751.35" y2="519.59"/><line class="cls-29" x1="727.88" y1="559.33" x2="751.09" y2="546.24"/><line class="cls-30" x1="748.62" y1="495.69" x2="780.77" y2="514.69"/><line class="cls-30" x1="748.99" y1="458.35" x2="748.62" y2="495.69"/><line class="cls-30" x1="781.52" y1="440" x2="748.99" y2="458.35"/><line class="cls-30" x1="813.67" y1="458.99" x2="781.52" y2="440"/><line class="cls-30" x1="813.3" y1="496.34" x2="813.67" y2="458.99"/><line class="cls-30" x1="780.77" y1="514.69" x2="813.3" y2="496.34"/><line class="cls-19" x1="653.54" y1="433.12" x2="683.15" y2="416.41"/><line class="cls-19" x1="653.2" y1="467.11" x2="653.54" y2="433.12"/><line class="cls-19" x1="682.47" y1="484.4" x2="653.2" y2="467.11"/><line class="cls-19" x1="712.08" y1="467.7" x2="682.47" y2="484.4"/><line class="cls-19" x1="712.42" y1="433.7" x2="712.08" y2="467.7"/><line class="cls-19" x1="683.15" y1="416.41" x2="712.42" y2="433.7"/><line class="cls-31" x1="1125.46" y1="823.03" x2="1163.72" y2="845.63"/><line class="cls-31" x1="1125.9" y1="778.6" x2="1125.46" y2="823.03"/><line class="cls-31" x1="1164.6" y1="756.77" x2="1125.9" y2="778.6"/><line class="cls-31" x1="1202.86" y1="779.37" x2="1164.6" y2="756.77"/><line class="cls-31" x1="1202.42" y1="823.8" x2="1202.86" y2="779.37"/><line class="cls-31" x1="1163.72" y1="845.63" x2="1202.42" y2="823.8"/><line class="cls-32" x1="781.22" y1="491.05" x2="819.76" y2="513.82"/><line class="cls-32" x1="781.66" y1="446.29" x2="781.22" y2="491.05"/><line class="cls-32" x1="820.65" y1="424.3" x2="781.66" y2="446.29"/><line class="cls-32" x1="859.19" y1="447.06" x2="820.65" y2="424.3"/><line class="cls-32" x1="858.74" y1="491.82" x2="859.19" y2="447.06"/><line class="cls-32" x1="819.76" y1="513.82" x2="858.74" y2="491.82"/></g><g class="cls-10"><line class="cls-33" x1="987.91" y1="650.62" x2="1074.84" y2="701.97"/><line class="cls-33" x1="988.92" y1="549.67" x2="987.91" y2="650.62"/><line class="cls-33" x1="1076.85" y1="500.06" x2="988.92" y2="549.67"/><line class="cls-33" x1="1163.78" y1="551.4" x2="1076.85" y2="500.06"/><line class="cls-33" x1="1162.78" y1="652.36" x2="1163.78" y2="551.4"/><line class="cls-33" x1="1074.84" y1="701.97" x2="1162.78" y2="652.36"/><line class="cls-34" x1="1256.09" y1="771.54" x2="1342.38" y2="822.51"/><line class="cls-34" x1="1257.08" y1="671.33" x2="1256.09" y2="771.54"/><line class="cls-34" x1="1344.37" y1="622.09" x2="1257.08" y2="671.33"/><line class="cls-34" x1="1430.66" y1="673.06" x2="1344.37" y2="622.09"/><line class="cls-34" x1="1429.66" y1="773.27" x2="1430.66" y2="673.06"/><line class="cls-34" x1="1342.38" y1="822.51" x2="1429.66" y2="773.27"/><line class="cls-35" x1="874.6" y1="651.95" x2="975.97" y2="711.82"/><line class="cls-35" x1="875.77" y1="534.22" x2="874.6" y2="651.95"/><line class="cls-35" x1="978.31" y1="476.37" x2="875.77" y2="534.22"/><line class="cls-35" x1="1079.68" y1="536.25" x2="978.31" y2="476.37"/><line class="cls-35" x1="1078.51" y1="653.97" x2="1079.68" y2="536.25"/><line class="cls-35" x1="975.97" y1="711.82" x2="1078.51" y2="653.97"/><line class="cls-36" x1="1231.08" y1="889.79" x2="1297.71" y2="929.15"/><line class="cls-36" x1="1231.85" y1="812.41" x2="1231.08" y2="889.79"/><line class="cls-36" x1="1299.25" y1="774.38" x2="1231.85" y2="812.41"/><line class="cls-36" x1="1365.88" y1="813.74" x2="1299.25" y2="774.38"/><line class="cls-36" x1="1365.11" y1="891.12" x2="1365.88" y2="813.74"/><line class="cls-36" x1="1297.71" y1="929.15" x2="1365.11" y2="891.12"/><line class="cls-37" x1="1108.77" y1="706.13" x2="1173.54" y2="744.39"/><line class="cls-37" x1="1109.52" y1="630.92" x2="1108.77" y2="706.13"/><line class="cls-37" x1="1175.03" y1="593.95" x2="1109.52" y2="630.92"/><line class="cls-37" x1="1239.8" y1="632.21" x2="1175.03" y2="593.95"/><line class="cls-37" x1="1239.05" y1="707.43" x2="1239.8" y2="632.21"/><line class="cls-37" x1="1173.54" y1="744.39" x2="1239.05" y2="707.43"/><line class="cls-38" x1="1098.48" y1="533.06" x2="1177.75" y2="579.89"/><line class="cls-38" x1="1099.39" y1="441" x2="1098.48" y2="533.06"/><line class="cls-38" x1="1179.58" y1="395.76" x2="1099.39" y2="441"/><line class="cls-38" x1="1258.86" y1="442.58" x2="1179.58" y2="395.76"/><line class="cls-38" x1="1257.94" y1="534.65" x2="1258.86" y2="442.58"/><line class="cls-38" x1="1177.75" y1="579.89" x2="1257.94" y2="534.65"/></g><path class="cls-2" d="M1164.7,715a3.66,3.66,0,1,1,5.11.79A3.66,3.66,0,0,1,1164.7,715Z"/><path class="cls-2" d="M1152.06,605a4.26,4.26,0,1,1,2.18,5.61A4.26,4.26,0,0,1,1152.06,605Z"/><path class="cls-2" d="M1257.2,608.23a2.61,2.61,0,1,1-2.31,2.87A2.61,2.61,0,0,1,1257.2,608.23Z"/><path class="cls-2" d="M1293.49,725.87a3.61,3.61,0,1,1-5-.77A3.62,3.62,0,0,1,1293.49,725.87Z"/><path class="cls-2" d="M1293.27,792.62a3.85,3.85,0,1,1-2-5.07A3.86,3.86,0,0,1,1293.27,792.62Z"/><path class="cls-2" d="M1228.4,798.55a6.26,6.26,0,1,1,5.55-6.9A6.25,6.25,0,0,1,1228.4,798.55Z"/><path class="cls-2" d="M793.77,542.83a3.78,3.78,0,1,1,5.28.81A3.77,3.77,0,0,1,793.77,542.83Z"/><path class="cls-2" d="M766.83,491.08a4.8,4.8,0,1,1,2.46,6.33A4.8,4.8,0,0,1,766.83,491.08Z"/><path class="cls-2" d="M887.83,469.66a3.35,3.35,0,1,1-3,3.69A3.35,3.35,0,0,1,887.83,469.66Z"/><path class="cls-2" d="M869.73,585.08a4.19,4.19,0,1,1-5.85-.9A4.18,4.18,0,0,1,869.73,585.08Z"/><path class="cls-2" d="M902.41,608.23a3.51,3.51,0,1,1-1.8-4.62A3.51,3.51,0,0,1,902.41,608.23Z"/><path class="cls-2" d="M848.54,653.94a3.1,3.1,0,1,1,2.75-3.42A3.11,3.11,0,0,1,848.54,653.94Z"/><path class="cls-2" d="M1068.91,554.7a6.51,6.51,0,1,1,3.33,8.58A6.51,6.51,0,0,1,1068.91,554.7Z"/><path class="cls-2" d="M192.53,451.66a8.17,8.17,0,1,1-11.42-1.76A8.18,8.18,0,0,1,192.53,451.66Z"/><path class="cls-2" d="M285.58,291.64a6.16,6.16,0,1,1-3.15-8.13A6.16,6.16,0,0,1,285.58,291.64Z"/><path class="cls-2" d="M130,391.77a6.43,6.43,0,1,1-5.69,7.09A6.43,6.43,0,0,1,130,391.77Z"/><path class="cls-2" d="M197.92,276a2.79,2.79,0,1,1-3.91-.6A2.79,2.79,0,0,1,197.92,276Z"/><path class="cls-2" d="M202.26,371.38a1.16,1.16,0,1,1-.6-1.53A1.17,1.17,0,0,1,202.26,371.38Z"/><path class="cls-2" d="M181.29,319.74a1.14,1.14,0,1,1,1-1.26A1.15,1.15,0,0,1,181.29,319.74Z"/><path class="cls-2" d="M103,301.86a1.26,1.26,0,1,1,1.75.27A1.26,1.26,0,0,1,103,301.86Z"/><path class="cls-2" d="M151.73,286.18a2,2,0,1,1,1.05,2.7A2,2,0,0,1,151.73,286.18Z"/><path class="cls-2" d="M223.72,251.89a1.48,1.48,0,1,1-1.31,1.63A1.48,1.48,0,0,1,223.72,251.89Z"/><path class="cls-2" d="M1054.77,669.87a3.15,3.15,0,1,0-3.48-2.79A3.16,3.16,0,0,0,1054.77,669.87Z"/><path class="cls-2" d="M1134.74,646.71a1.52,1.52,0,1,0-2,.77A1.52,1.52,0,0,0,1134.74,646.71Z"/><path class="cls-2" d="M1109.83,606.56a3.61,3.61,0,1,0-.77,5.05A3.61,3.61,0,0,0,1109.83,606.56Z"/><path class="cls-2" d="M990.78,593a1.59,1.59,0,1,0,1.75,1.41A1.59,1.59,0,0,0,990.78,593Z"/><path class="cls-2" d="M1006.07,622.25a3.23,3.23,0,1,0,4.26-1.65A3.23,3.23,0,0,0,1006.07,622.25Z"/><path class="cls-2" d="M1000.11,617.27a1.71,1.71,0,1,0,.37-2.38A1.7,1.7,0,0,0,1000.11,617.27Z"/></g></g></svg>