<svg width="36" height="36" viewBox="0 0 36 36" fill="none" xmlns="http://www.w3.org/2000/svg">
<g clip-path="url(#clip0_1128_10)">
<path d="M4.5 34.875C4.49986 35.0704 4.55059 35.2624 4.64721 35.4322C4.74382 35.602 4.88299 35.7437 5.05101 35.8434C5.21903 35.9431 5.41011 35.9973 5.60544 36.0007C5.80077 36.004 5.99362 35.9565 6.165 35.8628L18 29.4053L29.835 35.8628C30.0064 35.9565 30.1992 36.004 30.3946 36.0007C30.5899 35.9973 30.781 35.9431 30.949 35.8434C31.117 35.7437 31.2562 35.602 31.3528 35.4322C31.4494 35.2624 31.5001 35.0704 31.5 34.875V4.5C31.5 3.30653 31.0259 2.16193 30.182 1.31802C29.3381 0.474106 28.1935 0 27 0L9 0C7.80653 0 6.66193 0.474106 5.81802 1.31802C4.97411 2.16193 4.5 3.30653 4.5 4.5V34.875ZM18 9.9225C21.1207 6.71625 28.9215 12.33 18 19.5458C7.0785 12.33 14.8793 6.7185 18 9.927V9.9225Z" fill="white"/>
</g>
<defs>
<clipPath id="clip0_1128_10">
<rect width="36" height="36" fill="black"/>
</clipPath>
</defs>
</svg>
