<svg width="74" height="68" viewBox="0 0 74 68" fill="none" xmlns="http://www.w3.org/2000/svg">
<g clip-path="url(#clip0_148_1469)">
<path fill-rule="evenodd" clip-rule="evenodd" d="M37 0C30.8961 0.0175887 25.0004 2.04057 20.3778 5.7035C16.835 8.5085 14.2681 12.1635 13.6067 15.8312C5.85525 17.4037 0 23.6087 0 31.1015C0 39.8055 7.8995 46.75 17.4871 46.75H34.6875V23.375C34.6875 22.8114 34.9311 22.2709 35.3648 21.8724C35.7985 21.4739 36.3867 21.25 37 21.25C37.6133 21.25 38.2015 21.4739 38.6352 21.8724C39.0689 22.2709 39.3125 22.8114 39.3125 23.375V46.75H58.682C67.0717 46.75 74 40.6725 74 33.0352C74 26.0822 68.2558 20.417 60.8928 19.4608C59.7689 8.49575 49.4412 0 37 0ZM35.3628 67.3795C35.5776 67.5774 35.8327 67.7344 36.1137 67.8415C36.3946 67.9487 36.6958 68.0038 37 68.0038C37.3042 68.0038 37.6054 67.9487 37.8863 67.8415C38.1673 67.7344 38.4224 67.5774 38.6372 67.3795L52.5122 54.6295C52.9465 54.2305 53.1904 53.6893 53.1904 53.125C53.1904 52.5607 52.9465 52.0195 52.5122 51.6205C52.078 51.2215 51.4891 50.9973 50.875 50.9973C50.2609 50.9973 49.672 51.2215 49.2378 51.6205L39.3125 60.7453V46.75H34.6875V60.7453L24.7623 51.6205C24.328 51.2215 23.7391 50.9973 23.125 50.9973C22.5109 50.9973 21.922 51.2215 21.4877 51.6205C21.0535 52.0195 20.8096 52.5607 20.8096 53.125C20.8096 53.6893 21.0535 54.2305 21.4877 54.6295L35.3628 67.3795Z" fill="#FF4254"/>
</g>
<defs>
<clipPath id="clip0_148_1469">
<rect width="74" height="68" fill="white"/>
</clipPath>
</defs>
</svg>
