<svg width="27" height="28" viewBox="0 0 27 28" fill="none" xmlns="http://www.w3.org/2000/svg">
<g clip-path="url(#clip0_158_63)">
<path d="M13.4998 4.80909L12.2899 3.51934C9.44982 0.491835 4.2422 1.53659 2.36232 5.34284C1.47976 7.13309 1.28064 9.71784 2.8922 13.0166C4.4447 16.1928 7.67457 19.9973 13.4998 24.1413C19.3251 19.9973 22.5533 16.1928 24.1075 13.0166C25.719 9.71609 25.5216 7.13309 24.6373 5.34284C22.7575 1.53659 17.5498 0.490085 14.7098 3.51759L13.4998 4.80909ZM13.4998 26.2501C-12.3746 8.51909 5.53314 -5.31992 13.2028 2.00034C13.3041 2.09659 13.4036 2.19634 13.4998 2.29959C13.595 2.19643 13.6941 2.09719 13.7968 2.00209C21.4648 -5.32342 39.3743 8.51734 13.4998 26.2501Z" fill="black"/>
</g>
<defs>
<clipPath id="clip0_158_63">
<rect width="27" height="28" fill="white"/>
</clipPath>
</defs>
</svg>
