<svg width="30" height="30" viewBox="0 0 30 30" fill="none" xmlns="http://www.w3.org/2000/svg">
<g clip-path="url(#clip0_148_1449)">
<path d="M14.9998 5.15253L13.6554 3.77066C10.4998 0.526905 4.71355 1.64628 2.6248 5.72441C1.64418 7.64253 1.42293 10.4119 3.21355 13.9463C4.93855 17.3494 8.5273 21.4257 14.9998 25.8657C21.4723 21.4257 25.0592 17.3494 26.7861 13.9463C28.5767 10.41 28.3573 7.64253 27.3748 5.72441C25.2861 1.64628 19.4998 0.52503 16.3442 3.76878L14.9998 5.15253ZM14.9998 28.125C-13.7496 9.12753 6.14793 -5.69997 14.6698 2.14316C14.7823 2.24628 14.8929 2.35316 14.9998 2.46378C15.1056 2.35326 15.2157 2.24692 15.3298 2.14503C23.8498 -5.70372 43.7492 9.12566 14.9998 28.125Z" fill="#F8F8F8"/>
</g>
<defs>
<clipPath id="clip0_148_1449">
<rect width="30" height="30" fill="white"/>
</clipPath>
</defs>
</svg>
