<svg width="36" height="36" viewBox="0 0 36 36" fill="none" xmlns="http://www.w3.org/2000/svg">
<path d="M15 4.5H6C5.60218 4.5 5.22064 4.65804 4.93934 4.93934C4.65804 5.22064 4.5 5.60218 4.5 6V15C4.5 15.3978 4.65804 15.7794 4.93934 16.0607C5.22064 16.342 5.60218 16.5 6 16.5H15C15.3978 16.5 15.7794 16.342 16.0607 16.0607C16.342 15.7794 16.5 15.3978 16.5 15V6C16.5 5.60218 16.342 5.22064 16.0607 4.93934C15.7794 4.65804 15.3978 4.5 15 4.5V4.5ZM30 19.5H21C20.6022 19.5 20.2206 19.658 19.9393 19.9393C19.658 20.2206 19.5 20.6022 19.5 21V30C19.5 30.3978 19.658 30.7794 19.9393 31.0607C20.2206 31.342 20.6022 31.5 21 31.5H30C30.3978 31.5 30.7794 31.342 31.0607 31.0607C31.342 30.7794 31.5 30.3978 31.5 30V21C31.5 20.6022 31.342 20.2206 31.0607 19.9393C30.7794 19.658 30.3978 19.5 30 19.5ZM25.5 4.5C22.191 4.5 19.5 7.191 19.5 10.5C19.5 13.809 22.191 16.5 25.5 16.5C28.809 16.5 31.5 13.809 31.5 10.5C31.5 7.191 28.809 4.5 25.5 4.5ZM10.5 19.5C7.191 19.5 4.5 22.191 4.5 25.5C4.5 28.809 7.191 31.5 10.5 31.5C13.809 31.5 16.5 28.809 16.5 25.5C16.5 22.191 13.809 19.5 10.5 19.5Z" fill="#F8F8F8"/>
</svg>
