<svg width="36" height="36" viewBox="0 0 36 36" fill="none" xmlns="http://www.w3.org/2000/svg">
<path d="M6 19.5H15C15.3978 19.5 15.7794 19.342 16.0607 19.0607C16.342 18.7794 16.5 18.3978 16.5 18V6C16.5 5.60218 16.342 5.22064 16.0607 4.93934C15.7794 4.65804 15.3978 4.5 15 4.5H6C5.60218 4.5 5.22064 4.65804 4.93934 4.93934C4.65804 5.22064 4.5 5.60218 4.5 6V18C4.5 18.3978 4.65804 18.7794 4.93934 19.0607C5.22064 19.342 5.60218 19.5 6 19.5ZM4.5 30C4.5 30.3978 4.65804 30.7794 4.93934 31.0607C5.22064 31.342 5.60218 31.5 6 31.5H15C15.3978 31.5 15.7794 31.342 16.0607 31.0607C16.342 30.7794 16.5 30.3978 16.5 30V24C16.5 23.6022 16.342 23.2206 16.0607 22.9393C15.7794 22.658 15.3978 22.5 15 22.5H6C5.60218 22.5 5.22064 22.658 4.93934 22.9393C4.65804 23.2206 4.5 23.6022 4.5 24V30ZM19.5 30C19.5 30.3978 19.658 30.7794 19.9393 31.0607C20.2206 31.342 20.6022 31.5 21 31.5H30C30.3978 31.5 30.7794 31.342 31.0607 31.0607C31.342 30.7794 31.5 30.3978 31.5 30V19.5C31.5 19.1022 31.342 18.7206 31.0607 18.4393C30.7794 18.158 30.3978 18 30 18H21C20.6022 18 20.2206 18.158 19.9393 18.4393C19.658 18.7206 19.5 19.1022 19.5 19.5V30ZM21 15H30C30.3978 15 30.7794 14.842 31.0607 14.5607C31.342 14.2794 31.5 13.8978 31.5 13.5V6C31.5 5.60218 31.342 5.22064 31.0607 4.93934C30.7794 4.65804 30.3978 4.5 30 4.5H21C20.6022 4.5 20.2206 4.65804 19.9393 4.93934C19.658 5.22064 19.5 5.60218 19.5 6V13.5C19.5 13.8978 19.658 14.2794 19.9393 14.5607C20.2206 14.842 20.6022 15 21 15Z" fill="black"/>
</svg>
