<svg width="36" height="36" viewBox="0 0 36 36" fill="none" xmlns="http://www.w3.org/2000/svg">
<path d="M31.5 6H4.5C4.10218 6 3.72064 6.15804 3.43934 6.43934C3.15804 6.72064 3 7.10218 3 7.5V28.5C3 29.2956 3.31607 30.0587 3.87868 30.6213C4.44129 31.1839 5.20435 31.5 6 31.5H30C30.7956 31.5 31.5587 31.1839 32.1213 30.6213C32.6839 30.0587 33 29.2956 33 28.5V7.5C33 7.10218 32.842 6.72064 32.5607 6.43934C32.2794 6.15804 31.8978 6 31.5 6V6ZM18 19.5C13.0365 19.5 9 15.4635 9 10.5H12C12 13.809 14.691 16.5 18 16.5C21.309 16.5 24 13.809 24 10.5H27C27 15.4635 22.9635 19.5 18 19.5Z" fill="black"/>
</svg>
