<svg width="28" height="27" viewBox="0 0 28 27" fill="none" xmlns="http://www.w3.org/2000/svg">
<path d="M25.6045 10.3264C25.5312 10.1181 25.3962 9.93511 25.2163 9.79996C25.0363 9.66481 24.8192 9.58344 24.5919 9.56589L17.9407 9.05627L15.0625 2.91264C14.9709 2.71477 14.8218 2.5467 14.6333 2.42873C14.4447 2.31076 14.2248 2.24792 14.0001 2.2478C13.7753 2.24768 13.5554 2.31029 13.3667 2.42806C13.178 2.54583 13.0288 2.71374 12.9369 2.91152L10.0587 9.05627L3.40754 9.56589C3.18407 9.58296 2.97043 9.66175 2.79219 9.79284C2.61394 9.92392 2.47863 10.1018 2.40245 10.305C2.32626 10.5083 2.31243 10.7285 2.36261 10.9392C2.41278 11.1499 2.52484 11.3421 2.68537 11.493L7.60054 16.1134L5.86221 23.3719C5.80942 23.5916 5.82634 23.8215 5.91076 24.0319C5.99518 24.2422 6.14321 24.4232 6.33564 24.5514C6.52807 24.6796 6.75601 24.749 6.98989 24.7508C7.22376 24.7525 7.45277 24.6864 7.64721 24.561L13.9997 20.4773L20.3522 24.561C20.5509 24.6882 20.7853 24.7537 21.0238 24.7487C21.2623 24.7437 21.4934 24.6683 21.6862 24.5328C21.8789 24.3973 22.024 24.2081 22.1019 23.9907C22.1799 23.7733 22.1869 23.5381 22.122 23.3168L19.9882 16.1168L25.2802 11.5245C25.6267 11.223 25.7539 10.7528 25.6045 10.3264V10.3264Z" fill="#FF4254"/>
</svg>
