<svg width="30" height="27" viewBox="0 0 30 27" fill="none" xmlns="http://www.w3.org/2000/svg">
<path d="M6.28128 23.3719C6.23846 23.5369 6.23769 23.7085 6.27903 23.8738C6.32037 24.0391 6.40276 24.1939 6.52001 24.3265C6.63726 24.459 6.78633 24.566 6.95606 24.6394C7.12578 24.7127 7.31175 24.7506 7.50003 24.75C7.74695 24.7501 7.98835 24.6843 8.19378 24.561L15 20.4773L21.8063 24.561C22.0192 24.6882 22.2703 24.7537 22.5258 24.7487C22.7813 24.7437 23.029 24.6683 23.2355 24.5328C23.442 24.3973 23.5975 24.2081 23.681 23.9907C23.7645 23.7733 23.772 23.5381 23.7025 23.3168L21.4163 16.1168L27.0863 11.5245C27.2679 11.3774 27.3976 11.1855 27.4593 10.9727C27.521 10.7599 27.5121 10.5355 27.4337 10.3272C27.3552 10.1189 27.2106 9.93593 27.0178 9.80082C26.825 9.66571 26.5924 9.58442 26.3488 9.56701L19.2225 9.05627L16.1388 2.91264C16.0406 2.71477 15.8808 2.5467 15.6788 2.42873C15.4768 2.31076 15.2412 2.24792 15.0004 2.2478C14.7596 2.24768 14.524 2.31029 14.3218 2.42806C14.1197 2.54583 13.9597 2.71374 13.8613 2.91152L10.7775 9.05627L3.65128 9.56589C3.41185 9.58296 3.18296 9.66175 2.99198 9.79284C2.801 9.92392 2.65602 10.1018 2.5744 10.305C2.49277 10.5083 2.47796 10.7285 2.53171 10.9392C2.58547 11.1499 2.70553 11.3421 2.87753 11.493L8.14503 16.1134L6.28128 23.3719ZM15 6.10764L17.5525 11.1938L18.2875 11.2466H18.2888L23.2538 11.601L19.165 14.913L19.1638 14.9153L18.585 15.3833L18.7988 16.0549V16.0583L20.365 20.9914L15 17.7728V6.10764Z" fill="#FF4254"/>
</svg>
