<svg width="36" height="36" viewBox="0 0 36 36" fill="none" xmlns="http://www.w3.org/2000/svg">
<path d="M4.5 18H18V20.25H4.5V18Z" fill="black"/>
<path d="M2.25 12.375H13.5V14.625H2.25V12.375Z" fill="black"/>
<path d="M33.6591 18.6818L30.2841 10.8067C30.1975 10.6043 30.0534 10.4318 29.8696 10.3106C29.6858 10.1894 29.4704 10.1249 29.2503 10.125H25.8753V7.875C25.8753 7.57663 25.7567 7.29048 25.5458 7.07951C25.3348 6.86853 25.0486 6.75 24.7503 6.75H6.75025V9H23.6253V23.1255C23.1126 23.4232 22.664 23.8194 22.3052 24.2913C21.9465 24.7632 21.6847 25.3014 21.535 25.875H14.4655C14.1917 24.8145 13.5405 23.8903 12.634 23.2756C11.7275 22.6609 10.6279 22.3979 9.54138 22.5359C8.45484 22.6739 7.45593 23.2034 6.73189 24.0252C6.00785 24.8471 5.6084 25.9047 5.6084 27C5.6084 28.0953 6.00785 29.1529 6.73189 29.9748C7.45593 30.7966 8.45484 31.3261 9.54138 31.4641C10.6279 31.6021 11.7275 31.3391 12.634 30.7244C13.5405 30.1097 14.1917 29.1855 14.4655 28.125H21.535C21.7797 29.0905 22.3394 29.9469 23.1255 30.5586C23.9116 31.1703 24.8792 31.5024 25.8753 31.5024C26.8713 31.5024 27.8389 31.1703 28.625 30.5586C29.4111 29.9469 29.9708 29.0905 30.2155 28.125H32.6253C32.9236 28.125 33.2098 28.0065 33.4208 27.7955C33.6317 27.5845 33.7503 27.2984 33.7503 27V19.125C33.7503 18.9726 33.7193 18.8218 33.6591 18.6818V18.6818ZM10.1253 29.25C9.68025 29.25 9.24523 29.118 8.87522 28.8708C8.50521 28.6236 8.21682 28.2722 8.04653 27.861C7.87623 27.4499 7.83167 26.9975 7.91849 26.561C8.0053 26.1246 8.2196 25.7237 8.53426 25.409C8.84893 25.0943 9.24984 24.88 9.6863 24.7932C10.1228 24.7064 10.5752 24.751 10.9863 24.9213C11.3974 25.0916 11.7488 25.38 11.9961 25.75C12.2433 26.12 12.3753 26.555 12.3753 27C12.3747 27.5966 12.1374 28.1685 11.7156 28.5903C11.2938 29.0122 10.7218 29.2494 10.1253 29.25V29.25ZM25.8753 12.375H28.5078L30.9198 18H25.8753V12.375ZM25.8753 29.25C25.4302 29.25 24.9952 29.118 24.6252 28.8708C24.2552 28.6236 23.9668 28.2722 23.7965 27.861C23.6262 27.4499 23.5817 26.9975 23.6685 26.561C23.7553 26.1246 23.9696 25.7237 24.2843 25.409C24.5989 25.0943 24.9998 24.88 25.4363 24.7932C25.8728 24.7064 26.3252 24.751 26.7363 24.9213C27.1474 25.0916 27.4988 25.38 27.7461 25.75C27.9933 26.12 28.1253 26.555 28.1253 27C28.1247 27.5966 27.8874 28.1685 27.4656 28.5903C27.0438 29.0122 26.4718 29.2494 25.8753 29.25ZM31.5003 25.875H30.2155C29.9677 24.9114 29.4071 24.0572 28.6216 23.4464C27.8362 22.8356 26.8702 22.5028 25.8753 22.5V20.25H31.5003V25.875Z" fill="black"/>
</svg>
