<svg width="84" height="84" viewBox="0 0 84 84" fill="none" xmlns="http://www.w3.org/2000/svg">
<path d="M77.3894 22.638L51.1394 8.20048C50.7518 7.98724 50.3166 7.87543 49.8742 7.87543C49.4318 7.87543 48.9965 7.98724 48.6089 8.20048L22.3589 22.638C21.9474 22.8646 21.6042 23.1975 21.3651 23.602C21.1261 24.0064 21 24.4677 21 24.9375C21 25.4073 21.1261 25.8685 21.3651 26.273C21.6042 26.6775 21.9474 27.0104 22.3589 27.237L47.2492 40.9264V69.0637L39.2797 64.68L36.7492 69.2764L48.6089 75.7995C48.9964 76.0132 49.4317 76.1253 49.8742 76.1253C50.3167 76.1253 50.752 76.0132 51.1394 75.7995L77.3894 61.362C77.8011 61.1355 78.1445 60.8026 78.3837 60.3981C78.6229 59.9937 78.7491 59.5324 78.7492 59.0625V24.9375C78.7491 24.4676 78.6229 24.0063 78.3837 23.6018C78.1445 23.1973 77.8011 22.8645 77.3894 22.638ZM49.8742 13.4977L70.6773 24.9375L49.8742 36.3772L29.0711 24.9375L49.8742 13.4977ZM73.4992 57.5111L52.4992 69.0611V40.9237L73.4992 29.3737V57.5111Z" fill="#FF4254"/>
<path d="M26.25 42H5.25V36.75H26.25V42Z" fill="#FF4254"/>
<path d="M31.5 63H10.5V57.75H31.5V63Z" fill="#FF4254"/>
<path d="M36.75 52.5H15.75V47.25H36.75V52.5Z" fill="#FF4254"/>
</svg>
