<svg width="67" height="67" viewBox="0 0 67 67" fill="none" xmlns="http://www.w3.org/2000/svg">
<g clip-path="url(#clip0_159_1373)">
<path d="M54.6826 30.6274C54.6826 30.6274 55.5662 34.9552 55.7651 35.8617H51.8812L53.7425 30.8012C53.7195 30.8368 54.1257 29.7417 54.3581 29.0675L54.6826 30.6274ZM67.0002 13.0273V53.9727C66.9996 55.4535 66.4111 56.8735 65.364 57.9206C64.3169 58.9677 62.8969 59.5562 61.4161 59.5567H5.58208C4.10127 59.5562 2.68127 58.9677 1.63418 57.9206C0.587096 56.8735 -0.0013982 55.4535 -0.00195312 53.9727V13.0273C-0.0013982 11.5465 0.587096 10.1265 1.63418 9.07942C2.68127 8.03233 4.10127 7.44384 5.58208 7.44328H61.4161C62.8969 7.44384 64.3169 8.03233 65.364 9.07942C66.4111 10.1265 66.9996 11.5465 67.0002 13.0273V13.0273ZM17.7384 42.2477L25.0896 24.1954H20.1462L15.5756 36.5255L15.0751 34.0255L13.4462 25.7196C13.1782 24.5681 12.3533 24.2414 11.3294 24.1954H3.80449L3.72283 24.5555C5.44614 24.9783 7.09919 25.6482 8.63058 26.5446L12.795 42.2477H17.7384ZM28.7201 42.2707L31.6514 24.1954H26.976L24.0573 42.2707H28.7201ZM44.9927 36.3622C45.0158 34.304 43.7595 32.7337 41.0732 31.4418C39.4338 30.6148 38.433 30.0579 38.433 29.2078C38.4561 28.4394 39.2831 27.648 41.1193 27.648C42.3153 27.6142 43.5036 27.8489 44.597 28.3347L45.0158 28.5315L45.6565 24.6225C44.3198 24.1108 42.9002 23.8503 41.469 23.8541C36.8501 23.8541 33.6048 26.3205 33.5818 29.8317C33.5462 32.4259 35.908 33.8685 37.6772 34.7395C39.4799 35.6231 40.0976 36.2051 40.0976 36.984C40.0745 38.1942 38.6319 38.7511 37.294 38.7511C35.4327 38.7511 34.4319 38.4601 32.9076 37.7859L32.2921 37.4949L31.6409 41.5547C32.7338 42.0551 34.7585 42.4968 36.8522 42.5199C41.76 42.5303 44.9592 40.0995 44.9948 36.3559L44.9927 36.3622ZM61.4161 42.2707L57.6474 24.1954H54.0294C52.9134 24.1954 52.0633 24.522 51.586 25.6966L44.641 42.2728H49.5487C49.5487 42.2728 50.3507 40.0388 50.5265 39.5635H56.5293C56.6696 40.2042 57.0883 42.2728 57.0883 42.2728L61.4161 42.2707Z" fill="black"/>
</g>
<defs>
<clipPath id="clip0_159_1373">
<rect width="67" height="67" fill="white"/>
</clipPath>
</defs>
</svg>
