<svg width="67" height="67" viewBox="0 0 67 67" fill="none" xmlns="http://www.w3.org/2000/svg">
<g clip-path="url(#clip0_159_1380)">
<path d="M56.1713 51.4476C56.1713 52.2391 55.6374 52.8086 54.869 52.8086C54.0775 52.8086 53.5667 52.2035 53.5667 51.4476C53.5667 50.6918 54.0775 50.0867 54.869 50.0867C55.6374 50.0867 56.1713 50.6918 56.1713 51.4476ZM20.0185 50.0867C19.1915 50.0867 18.7162 50.6918 18.7162 51.4476C18.7162 52.2035 19.1936 52.8086 20.0185 52.8086C20.7743 52.8086 21.2852 52.2391 21.2852 51.4476C21.2726 50.6918 20.7743 50.0867 20.0185 50.0867ZM33.6865 50.0532C33.0584 50.0532 32.6731 50.4594 32.581 51.0645H34.8025C34.6978 50.4008 34.2916 50.0532 33.6865 50.0532ZM46.226 50.0867C45.4345 50.0867 44.9592 50.6918 44.9592 51.4476C44.9592 52.2035 45.4366 52.8086 46.226 52.8086C47.0174 52.8086 47.5283 52.2391 47.5283 51.4476C47.5283 50.6918 47.0153 50.0867 46.226 50.0867ZM58.5435 53.1226C58.5435 53.1582 58.5791 53.1813 58.5791 53.2503C58.5791 53.2859 58.5435 53.309 58.5435 53.3781C58.5079 53.4137 58.5079 53.4367 58.4849 53.4702C58.4493 53.5058 58.4262 53.5288 58.3572 53.5288C58.3216 53.5644 58.2985 53.5644 58.2294 53.5644C58.1938 53.5644 58.1708 53.5644 58.1017 53.5288C58.0661 53.5288 58.0431 53.4932 58.0096 53.4702C57.974 53.4346 57.951 53.4116 57.951 53.3781C57.9154 53.3194 57.9154 53.2859 57.9154 53.2503C57.9154 53.1917 57.9154 53.1582 57.951 53.1226C57.951 53.064 57.9866 53.0305 58.0096 52.9949C58.0452 52.9593 58.0682 52.9593 58.1017 52.9363C58.1603 52.9007 58.1938 52.9007 58.2294 52.9007C58.2881 52.9007 58.3216 52.9007 58.3572 52.9363C58.4158 52.9698 58.4493 52.9698 58.4849 52.9949C58.5205 53.02 58.5079 53.064 58.5435 53.1226ZM58.2881 53.2859C58.3467 53.2859 58.3467 53.2503 58.3802 53.2503C58.4158 53.2148 58.4158 53.1917 58.4158 53.1582C58.4158 53.1247 58.4158 53.0996 58.3802 53.0661C58.3467 53.0661 58.3216 53.0305 58.2525 53.0305H58.0661V53.4367H58.1582V53.2734H58.1938L58.3216 53.4367H58.4137L58.2881 53.2859ZM67.0002 13.1446V54.0899C66.9996 55.5707 66.4111 56.9907 65.364 58.0378C64.3169 59.0849 62.8969 59.6734 61.4161 59.674H5.58208C4.10127 59.6734 2.68127 59.0849 1.63418 58.0378C0.587096 56.9907 -0.0013982 55.5707 -0.00195312 54.0899V13.1446C-0.0013982 11.6638 0.587096 10.2438 1.63418 9.19667C2.68127 8.14958 4.10127 7.56109 5.58208 7.56053H61.4161C62.8969 7.56109 64.3169 8.14958 65.364 9.19667C66.4111 10.2438 66.9996 11.6638 67.0002 13.1446V13.1446ZM7.44552 29.3816C7.44552 38.28 14.669 45.4909 23.5548 45.4909C26.7194 45.4819 29.8123 44.5482 32.4533 42.8046C23.9736 35.9078 24.0322 22.891 32.4533 15.9921C29.8149 14.243 26.7203 13.3088 23.5548 13.3058C14.669 13.2953 7.44552 20.5167 7.44552 29.3816V29.3816ZM33.5001 42.0383C41.7014 35.6398 41.6658 23.1715 33.5001 16.7395C25.3345 23.1715 25.2989 35.6524 33.5001 42.0383ZM16.947 50.9137C16.947 49.9024 16.2832 49.2387 15.2364 49.2031C14.7004 49.2031 14.1309 49.3664 13.7477 49.959C13.4692 49.4816 12.9919 49.2031 12.3281 49.2031C12.087 49.1994 11.8485 49.2547 11.6336 49.3642C11.4187 49.4737 11.2338 49.634 11.0949 49.8312V49.3204H10.1423V53.5895H11.0949C11.0949 51.3911 10.8039 50.0762 12.1418 50.0762C13.329 50.0762 13.0965 51.2634 13.0965 53.5895H14.0157C14.0157 51.4602 13.7247 50.0762 15.0626 50.0762C16.2497 50.0762 16.0152 51.2403 16.0152 53.5895H16.97V50.9137H16.947ZM22.1709 49.3204H21.2517V49.8312C21.089 49.6283 20.8814 49.4659 20.6452 49.3569C20.409 49.2479 20.1508 49.1953 19.8908 49.2031C18.6931 49.2031 17.774 50.1579 17.774 51.4476C17.774 52.7499 18.6931 53.6921 19.8908 53.6921C20.4959 53.6921 20.9376 53.4702 21.2517 53.064V53.6H22.1709V49.3204ZM26.8818 52.2977C26.8818 50.5536 24.2186 51.3429 24.2186 50.5285C24.2186 49.8647 25.6025 49.9715 26.3709 50.4008L26.7541 49.6449C25.6611 48.9351 23.2408 48.9477 23.2408 50.5997C23.2408 52.2621 25.904 51.5649 25.904 52.3438C25.904 53.0766 24.3337 53.0179 23.4962 52.4359L23.09 53.1687C24.3923 54.0522 26.8818 53.8659 26.8818 52.2956V52.2977ZM31.0002 53.3781L30.7448 52.5866C30.303 52.8295 29.3252 53.0975 29.3252 52.1093V50.1788H30.8495V49.3183H29.3252V48.016H28.3705V49.3183H27.4869V50.1683H28.3705V52.1113C28.3705 54.159 30.3826 53.7863 31.0002 53.3781V53.3781ZM32.5454 51.8203H35.7446C35.7446 49.9359 34.8841 49.1906 33.72 49.1906C32.4868 49.1906 31.6032 50.1097 31.6032 51.4351C31.6032 53.8198 34.233 54.2156 35.5353 53.087L35.0935 52.3898C34.1869 53.1352 32.8134 53.064 32.5454 51.8203V51.8203ZM39.4213 49.3204C38.8874 49.088 38.0729 49.111 37.6541 49.8312V49.3204H36.6994V53.5895H37.6541V51.1817C37.6541 49.8312 38.7596 50.0071 39.1428 50.2039L39.4213 49.3204ZM40.6545 51.4476C40.6545 50.1202 42.005 49.691 43.0623 50.4698L43.5041 49.714C42.1536 48.6567 39.6997 49.2366 39.6997 51.4581C39.6997 53.7612 42.3044 54.226 43.5041 53.2022L43.0623 52.4463C41.9924 53.2022 40.6545 52.7499 40.6545 51.4455V51.4476ZM48.4118 49.3204H47.4571V49.8312C46.4919 48.552 43.9794 49.2743 43.9794 51.4476C43.9794 53.6817 46.584 54.3203 47.4571 53.064V53.6H48.4118V49.3204ZM52.3313 49.3204C52.0529 49.1801 51.0521 48.9833 50.5642 49.8312V49.3204H49.6451V53.5895H50.5642V51.1817C50.5642 49.9024 51.6111 49.9841 52.0529 50.2039L52.3313 49.3204ZM57.0192 47.5868H56.1001V49.8312C55.1453 48.5645 52.6224 49.2387 52.6224 51.4476C52.6224 53.7047 55.2396 54.3077 56.1001 53.064V53.6H57.0192V47.5868ZM57.9049 38.8516V39.3876H57.997V38.8516H58.2169V38.7595H57.6809V38.8516H57.9049ZM58.6712 53.2503C58.6712 53.1917 58.6712 53.1226 58.6377 53.064C58.6021 53.0284 58.5791 52.9719 58.5456 52.9363C58.5121 52.9007 58.4535 52.8777 58.4179 52.8442C58.3592 52.8442 58.2902 52.8086 58.2315 52.8086C58.1959 52.8086 58.1394 52.8442 58.0682 52.8442C58.0223 52.8699 57.9795 52.9009 57.9405 52.9363C57.8819 52.9698 57.8484 53.0284 57.8484 53.064C57.8128 53.1226 57.8128 53.1917 57.8128 53.2503C57.8128 53.2859 57.8128 53.3425 57.8484 53.4137C57.8484 53.4492 57.884 53.5058 57.9405 53.5414C57.9758 53.581 58.0194 53.6125 58.0682 53.6335C58.1268 53.667 58.1959 53.667 58.2315 53.667C58.2902 53.667 58.3592 53.667 58.4179 53.6335C58.4535 53.5979 58.51 53.5749 58.5456 53.5414C58.5812 53.5079 58.6042 53.4492 58.6377 53.4137C58.6712 53.3446 58.6712 53.2859 58.6712 53.2503ZM59.0439 38.7469H58.8806L58.6942 39.1531L58.5079 38.7469H58.3446V39.3751H58.4367V38.8977L58.6231 39.3039H58.7508L58.9141 38.8977V39.3751H59.0418L59.0439 38.7469ZM59.5548 29.3816C59.5548 20.5167 52.3313 13.2953 43.4455 13.2953C40.2807 13.3032 37.1875 14.237 34.547 15.9816C42.9346 22.8805 43.0623 35.9308 34.547 42.7942C37.1868 44.5402 40.2805 45.4741 43.4455 45.4804C52.3313 45.493 59.5548 38.28 59.5548 29.3816Z" fill="black"/>
</g>
<defs>
<clipPath id="clip0_159_1380">
<rect width="67" height="67" fill="white"/>
</clipPath>
</defs>
</svg>
