<svg width="36" height="36" viewBox="0 0 36 36" fill="none" xmlns="http://www.w3.org/2000/svg">
<path d="M32.5697 15.72L29.2197 14.72C28.9881 13.9113 28.6696 13.1301 28.2697 12.39L29.9097 9.32003C29.9713 9.20415 29.9938 9.07151 29.974 8.94181C29.9542 8.81211 29.8931 8.69225 29.7997 8.60003L27.4097 6.20003C27.3175 6.1067 27.1976 6.04559 27.0679 6.02578C26.9382 6.00596 26.8056 6.02849 26.6897 6.09003L23.6397 7.72003C22.8923 7.30069 22.1009 6.96532 21.2797 6.72003L20.2797 3.41003C20.2374 3.28805 20.1575 3.18263 20.0515 3.10895C19.9455 3.03528 19.8188 2.99714 19.6897 3.00003H16.3097C16.1799 3.00064 16.0536 3.04267 15.9493 3.12C15.845 3.19734 15.768 3.30595 15.7297 3.43003L14.7297 6.73003C13.9017 6.97401 13.1035 7.30941 12.3497 7.73003L9.34973 6.11003C9.23384 6.04849 9.10121 6.02596 8.97151 6.04578C8.8418 6.06559 8.72195 6.1267 8.62973 6.22003L6.19973 8.59003C6.1064 8.68225 6.04529 8.80211 6.02547 8.93181C6.00566 9.06151 6.02819 9.19415 6.08973 9.31003L7.70973 12.31C7.28978 13.0606 6.9544 13.8555 6.70973 14.68L3.39973 15.68C3.27565 15.7183 3.16704 15.7953 3.0897 15.8996C3.01236 16.0039 2.97033 16.1302 2.96973 16.26V19.64C2.97033 19.7699 3.01236 19.8962 3.0897 20.0005C3.16704 20.1048 3.27565 20.1817 3.39973 20.22L6.72973 21.22C6.97707 22.0308 7.3124 22.8122 7.72973 23.55L6.08973 26.69C6.02819 26.8059 6.00566 26.9385 6.02547 27.0683C6.04529 27.198 6.1064 27.3178 6.19973 27.41L8.58973 29.8C8.68195 29.8934 8.8018 29.9545 8.93151 29.9743C9.06121 29.9941 9.19384 29.9716 9.30973 29.91L12.3997 28.26C13.1307 28.6545 13.9017 28.9696 14.6997 29.2L15.6997 32.57C15.738 32.6941 15.815 32.8027 15.9193 32.8801C16.0236 32.9574 16.1499 32.9994 16.2797 33H19.6597C19.7896 32.9994 19.9159 32.9574 20.0202 32.8801C20.1245 32.8027 20.2014 32.6941 20.2397 32.57L21.2397 29.19C22.0309 28.9584 22.7952 28.6433 23.5197 28.25L26.6297 29.91C26.7456 29.9716 26.8782 29.9941 27.0079 29.9743C27.1376 29.9545 27.2575 29.8934 27.3497 29.8L29.7397 27.41C29.8331 27.3178 29.8942 27.198 29.914 27.0683C29.9338 26.9385 29.9113 26.8059 29.8497 26.69L28.1897 23.59C28.5871 22.8627 28.9056 22.095 29.1397 21.3L32.5097 20.3C32.6338 20.2617 32.7424 20.1848 32.8198 20.0805C32.8971 19.9762 32.9391 19.8499 32.9397 19.72V16.31C32.9456 16.1857 32.9133 16.0625 32.8472 15.957C32.7811 15.8516 32.6842 15.7689 32.5697 15.72V15.72ZM17.9997 23.5C16.9119 23.5 15.8486 23.1775 14.9441 22.5731C14.0396 21.9688 13.3347 21.1098 12.9184 20.1048C12.5021 19.0998 12.3932 17.9939 12.6054 16.927C12.8176 15.8601 13.3414 14.8801 14.1106 14.1109C14.8798 13.3418 15.8598 12.8179 16.9267 12.6057C17.9936 12.3935 19.0995 12.5024 20.1045 12.9187C21.1095 13.335 21.9685 14.0399 22.5728 14.9444C23.1772 15.8489 23.4997 16.9122 23.4997 18C23.4997 19.4587 22.9203 20.8577 21.8888 21.8891C20.8574 22.9206 19.4584 23.5 17.9997 23.5V23.5Z" fill="white"/>
</svg>
