<svg width="34" height="34" viewBox="0 0 34 34" fill="none" xmlns="http://www.w3.org/2000/svg">
<path d="M28.8999 13.6H30.5999V32.3H3.3999V13.6H5.0999V10.2C5.0999 5.50799 8.9079 1.69999 13.5999 1.69999C14.8069 1.69999 15.9629 1.95499 16.9999 2.41399C18.0711 1.9416 19.2292 1.6984 20.3999 1.69999C25.0919 1.69999 28.8999 5.50799 28.8999 10.2V13.6ZM8.4999 10.2V13.6H11.8999V10.2C11.8999 8.27899 12.5629 6.52799 13.6339 5.09999H13.5999C10.7949 5.09999 8.4999 7.39499 8.4999 10.2ZM25.4999 13.6V10.2C25.4999 7.39499 23.2049 5.09999 20.3999 5.09999H20.3659C21.4837 6.56586 22.0926 8.35654 22.0999 10.2V13.6H25.4999ZM16.9999 6.42599C15.9629 7.36099 15.2999 8.70399 15.2999 10.2V13.6H18.6999V10.2C18.6999 8.70399 18.0369 7.36099 16.9999 6.42599Z" fill="black"/>
</svg>
