<svg width="36" height="36" viewBox="0 0 36 36" fill="none" xmlns="http://www.w3.org/2000/svg">
<path d="M25.5 18C25.4981 18.3829 25.4109 18.7606 25.2449 19.1057C25.0788 19.4507 24.838 19.7545 24.54 19.995L16.89 26.31C16.4295 26.679 15.8745 26.9112 15.2884 26.9801C14.7023 27.0491 14.1086 26.952 13.575 26.7C13.1112 26.4955 12.7161 26.1619 12.4368 25.739C12.1575 25.3161 12.0059 24.8217 12 24.315L12 11.685C12.0059 11.1782 12.1575 10.6838 12.4368 10.2609C12.7161 9.83796 13.1112 9.50438 13.575 9.29996C14.1086 9.04791 14.7023 8.95083 15.2884 9.01978C15.8745 9.08873 16.4295 9.32094 16.89 9.68995L24.54 16.005C24.838 16.2454 25.0788 16.5492 25.2449 16.8942C25.4109 17.2393 25.4981 17.617 25.5 18ZM15 23.865L22.23 18L15 12V23.865Z" fill="white"/>
</svg>
