<svg width="28" height="28" viewBox="0 0 28 28" fill="none" xmlns="http://www.w3.org/2000/svg">
<path d="M25.0837 7C25.0836 7.28576 24.9787 7.56156 24.7888 7.7751C24.5989 7.98864 24.3373 8.12507 24.0535 8.1585L23.917 8.16667H22.9312L21.495 22.7733C21.4168 23.5659 21.0466 24.3011 20.4564 24.8358C19.8662 25.3706 19.0983 25.6668 18.3018 25.6667H9.69882C8.9024 25.6668 8.13441 25.3706 7.54423 24.8358C6.95404 24.3011 6.58385 23.5659 6.50566 22.7733L5.06949 8.16667H4.08366C3.77424 8.16667 3.47749 8.04375 3.2587 7.82496C3.03991 7.60617 2.91699 7.30942 2.91699 7C2.91699 6.69058 3.03991 6.39384 3.2587 6.17504C3.47749 5.95625 3.77424 5.83333 4.08366 5.83333H9.91699C9.91699 5.2971 10.0226 4.76612 10.2278 4.27071C10.433 3.7753 10.7338 3.32515 11.113 2.94598C11.4921 2.56681 11.9423 2.26603 12.4377 2.06083C12.9331 1.85562 13.4641 1.75 14.0003 1.75C14.5366 1.75 15.0675 1.85562 15.5629 2.06083C16.0584 2.26603 16.5085 2.56681 16.8877 2.94598C17.2669 3.32515 17.5676 3.7753 17.7728 4.27071C17.978 4.76612 18.0837 5.2971 18.0837 5.83333H23.917C24.2264 5.83333 24.5232 5.95625 24.742 6.17504C24.9607 6.39384 25.0837 6.69058 25.0837 7ZM16.6253 10.7917C16.4139 10.7917 16.2096 10.8683 16.0502 11.0072C15.8909 11.1462 15.7872 11.3382 15.7585 11.5477L15.7503 11.6667V19.8333L15.7585 19.9523C15.7873 20.1618 15.891 20.3537 16.0503 20.4926C16.2097 20.6315 16.4139 20.7081 16.6253 20.7081C16.8367 20.7081 17.041 20.6315 17.2003 20.4926C17.3597 20.3537 17.4633 20.1618 17.4922 19.9523L17.5003 19.8333V11.6667L17.4922 11.5477C17.4634 11.3382 17.3598 11.1462 17.2004 11.0072C17.0411 10.8683 16.8368 10.7917 16.6253 10.7917V10.7917ZM11.3753 10.7917C11.1639 10.7917 10.9596 10.8683 10.8002 11.0072C10.6409 11.1462 10.5372 11.3382 10.5085 11.5477L10.5003 11.6667V19.8333L10.5085 19.9523C10.5373 20.1618 10.641 20.3537 10.8003 20.4926C10.9597 20.6315 11.1639 20.7081 11.3753 20.7081C11.5867 20.7081 11.791 20.6315 11.9503 20.4926C12.1097 20.3537 12.2133 20.1618 12.2422 19.9523L12.2503 19.8333V11.6667L12.2422 11.5477C12.2134 11.3382 12.1098 11.1462 11.9504 11.0072C11.7911 10.8683 11.5868 10.7917 11.3753 10.7917V10.7917ZM14.0003 4.08333C13.5362 4.08333 13.0911 4.26771 12.7629 4.5959C12.4347 4.92409 12.2503 5.3692 12.2503 5.83333H15.7503C15.7503 5.3692 15.566 4.92409 15.2378 4.5959C14.9096 4.26771 14.4645 4.08333 14.0003 4.08333Z" fill="black"/>
</svg>
