<svg width="84" height="84" viewBox="0 0 84 84" fill="none" xmlns="http://www.w3.org/2000/svg">
<path d="M12.6006 14.7C12.6006 13.0292 13.2643 11.4267 14.4458 10.2453C15.6273 9.06377 17.2297 8.40002 18.9006 8.40002H48.3006C49.9714 8.40002 51.5739 9.06377 52.7554 10.2453C53.9368 11.4267 54.6006 13.0292 54.6006 14.7V22.2306L68.3262 35.9562C70.2942 37.9247 71.4 40.5941 71.4006 43.3776V73.5C71.4006 74.057 71.1793 74.5911 70.7855 74.9849C70.3917 75.3788 69.8575 75.6 69.3006 75.6C68.7436 75.6 68.2095 75.3788 67.8157 74.9849C67.4218 74.5911 67.2006 74.057 67.2006 73.5V43.3776C67.1991 41.7073 66.5344 40.106 65.3526 38.9256L54.6006 28.1736V41.1306L58.1874 44.7132C58.5812 45.1075 58.8021 45.6421 58.8018 46.1994C58.8014 46.7567 58.5796 47.291 58.1853 47.6847C57.99 47.8797 57.7583 48.0343 57.5033 48.1397C57.2483 48.2451 56.975 48.2993 56.6991 48.2991C56.1418 48.2987 55.6076 48.0769 55.2138 47.6826L42.6138 35.0826C40.8414 33.3102 39.8544 33.3858 39.4218 33.495C38.6952 33.6714 38.0526 34.251 37.1538 35.1162C36.7338 35.5194 36.5574 35.9142 36.6414 36.5022C36.7506 37.2372 37.326 38.5518 39.2874 40.5132L44.382 45.6078L45.5832 46.8132C45.7788 47.0083 45.9341 47.24 46.04 47.4951C46.146 47.7502 46.2005 48.0238 46.2006 48.3C46.2006 51.5508 46.2258 54.8226 47.1246 57.2922C47.553 58.4724 48.1368 59.3334 48.9054 59.9088C49.6572 60.4716 50.766 60.9 52.5006 60.9C53.0575 60.9 53.5917 61.1213 53.9855 61.5151C54.3793 61.9089 54.6006 62.4431 54.6006 63V69.3C54.6006 70.9709 53.9368 72.5733 52.7554 73.7548C51.5739 74.9363 49.9714 75.6 48.3006 75.6H18.9006C17.2297 75.6 15.6273 74.9363 14.4458 73.7548C13.2643 72.5733 12.6006 70.9709 12.6006 69.3V14.7ZM33.6006 31.5C31.8369 31.4998 30.1015 31.9438 28.5547 32.7911C27.0079 33.6385 25.6994 34.8618 24.75 36.3482C23.8007 37.8346 23.2411 39.5362 23.1228 41.2959C23.0045 43.0556 23.3314 44.8168 24.0733 46.4169C24.8152 48.0169 25.9482 49.4043 27.3677 50.451C28.7873 51.4977 30.4476 52.17 32.1955 52.4058C33.9433 52.6416 35.7224 52.4333 37.3686 51.8001C39.0147 51.1669 40.4748 50.1293 41.6142 48.783L41.4042 48.573L36.3138 43.4826C34.0752 41.244 32.7858 39.1398 32.4876 37.1154C32.3428 36.1956 32.4281 35.2543 32.7359 34.3756C33.0438 33.4968 33.5645 32.708 34.2516 32.0796L34.3944 31.941L34.7892 31.563C34.3945 31.5198 33.9977 31.4988 33.6006 31.5ZM42.0006 69.3V71.4H46.2006V69.3C46.2006 68.7431 46.4218 68.2089 46.8157 67.8151C47.2095 67.4213 47.7436 67.2 48.3006 67.2H50.4006V64.932C48.958 64.7128 47.5895 64.1496 46.4106 63.2898C45.1317 63.692 44.0144 64.4917 43.2212 65.5727C42.4281 66.6536 42.0005 67.9593 42.0006 69.3ZM16.8006 21H18.9006C20.5714 21 22.1739 20.3363 23.3554 19.1548C24.5368 17.9733 25.2006 16.3709 25.2006 14.7V12.6H21.0006V14.7C21.0006 15.257 20.7793 15.7911 20.3855 16.1849C19.9917 16.5788 19.4575 16.8 18.9006 16.8H16.8006V21ZM42.0006 14.7C42.0006 16.3709 42.6643 17.9733 43.8458 19.1548C45.0273 20.3363 46.6297 21 48.3006 21H50.4006V16.8H48.3006C47.7436 16.8 47.2095 16.5788 46.8157 16.1849C46.4218 15.7911 46.2006 15.257 46.2006 14.7V12.6H42.0006V14.7ZM25.2006 69.3C25.2006 67.6292 24.5368 66.0267 23.3554 64.8452C22.1739 63.6638 20.5714 63 18.9006 63H16.8006V67.2H18.9006C19.4575 67.2 19.9917 67.4213 20.3855 67.8151C20.7793 68.2089 21.0006 68.7431 21.0006 69.3V71.4H25.2006V69.3Z" fill="#FF4254"/>
</svg>
