<svg width="36" height="36" viewBox="0 0 36 36" fill="none" xmlns="http://www.w3.org/2000/svg">
<path d="M15.0004 3.75C17.0974 3.74992 19.1526 4.33592 20.9342 5.44188C22.7158 6.54785 24.1528 8.12974 25.0831 10.0091C26.0134 11.8884 26.4 13.9903 26.1991 16.0776C25.9982 18.1649 25.218 20.1546 23.9464 21.822L31.0609 28.9395C31.3299 29.2094 31.4861 29.5717 31.4977 29.9526C31.5094 30.3335 31.3756 30.7046 31.1235 30.9904C30.8715 31.2763 30.5201 31.4555 30.1407 31.4916C29.7613 31.5277 29.3824 31.4181 29.0809 31.185L28.9399 31.0605L21.8224 23.946C20.4019 25.0291 18.7439 25.7584 16.9855 26.0736C15.2272 26.3887 13.4191 26.2806 11.7109 25.7582C10.0026 25.2357 8.44336 24.314 7.16206 23.0693C5.88077 21.8246 4.9143 20.2927 4.34263 18.6003C3.77095 16.9079 3.61051 15.1037 3.87458 13.337C4.13864 11.5703 4.81963 9.89181 5.86118 8.44054C6.90273 6.98927 8.2749 5.80689 9.86415 4.99123C11.4534 4.17557 13.214 3.75009 15.0004 3.75ZM15.0004 6.75C12.8123 6.75 10.7139 7.61919 9.16675 9.16637C7.61958 10.7135 6.75038 12.812 6.75038 15C6.75038 17.188 7.61958 19.2865 9.16675 20.8336C10.7139 22.3808 12.8123 23.25 15.0004 23.25C17.1884 23.25 19.2868 22.3808 20.834 20.8336C22.3812 19.2865 23.2504 17.188 23.2504 15C23.2504 12.812 22.3812 10.7135 20.834 9.16637C19.2868 7.61919 17.1884 6.75 15.0004 6.75Z" fill="black"/>
</svg>
