<svg width="36" height="36" viewBox="0 0 36 36" fill="none" xmlns="http://www.w3.org/2000/svg">
<g clip-path="url(#clip0_1143_6)">
<path d="M23.5631 3.89735L23.544 5.69735C24.6503 5.70959 25.7558 5.89499 26.8052 6.24455L27.374 4.53671C26.1445 4.12755 24.8588 3.91186 23.5631 3.89735V3.89735ZM21.6317 4.02407C20.3503 4.20713 19.1046 4.58582 17.9381 5.14691L18.7193 6.76907C19.7198 6.28819 20.788 5.96354 21.8869 5.80643L21.6313 4.02407H21.6317ZM29.1586 5.28767L28.3367 6.88859C29.3244 7.3949 30.2286 8.0498 31.0176 8.83043L32.2855 7.55279C31.3654 6.6419 30.3108 5.87782 29.1586 5.28731V5.28767ZM12.6 6.88499C5.652 6.88499 0 12.537 0 19.485C0 26.433 5.652 32.085 12.6 32.085C15.8162 32.085 18.7513 30.8704 20.979 28.8796C20.9808 28.8796 20.9826 28.8796 20.984 28.8803C21.0074 28.859 21.0298 28.8367 21.0528 28.8155L21.0978 28.7741C21.4081 28.4897 21.7038 28.1898 21.9838 27.8755C22.0136 27.8424 22.0439 27.8096 22.073 27.7762C22.2167 27.6124 22.3574 27.4453 22.4924 27.2743C22.3189 27.2599 22.1465 27.2412 21.9755 27.2185C21.861 27.2038 21.748 27.1847 21.6346 27.166C21.5777 27.1566 21.5208 27.1494 21.4643 27.1393C21.2975 27.1093 21.1315 27.0753 20.9664 27.0374C20.8237 27.0042 20.6817 26.9681 20.5405 26.9291C20.5171 26.9226 20.4937 26.9172 20.4707 26.9107C15.9242 25.6378 12.6 21.4744 12.6 16.515C12.5974 15.0315 12.9017 13.5635 13.4938 12.2033C14.0859 10.8431 14.953 9.62013 16.0405 8.61119C16.0988 8.55683 16.1572 8.50247 16.2169 8.44919C16.3066 8.36999 16.3984 8.29223 16.4905 8.21519C16.5474 8.16803 16.6032 8.11943 16.6612 8.07335C16.8106 7.95383 16.9625 7.83719 17.1184 7.72595C16.7795 7.59537 16.4351 7.47946 16.0862 7.37855L16.0754 7.37567C15.9721 7.34615 15.8677 7.31987 15.7633 7.29287C15.6859 7.27271 15.6085 7.25039 15.5308 7.23167C15.4051 7.20143 15.2784 7.17587 15.1517 7.14923C15.1063 7.13987 15.0617 7.12871 15.016 7.11971L15.0152 7.12043C14.2197 6.96405 13.4108 6.8852 12.6 6.88499V6.88499ZM33.552 9.01907L32.1019 10.0872C32.7598 10.9808 33.2761 11.9704 33.6326 13.0212L35.3376 12.443C34.922 11.2167 34.3197 10.0618 33.552 9.01907V9.01907ZM35.8178 14.3172L34.0452 14.6304C34.2382 15.7208 34.2623 16.8426 34.115 17.9388L35.8988 18.1786C36.0716 16.8962 36.0428 15.5902 35.8178 14.3172V14.3172ZM33.768 19.5617C33.4513 20.6259 32.9734 21.6352 32.351 22.5547L33.8425 23.5631C34.5681 22.4909 35.1249 21.3139 35.4935 20.0729L33.768 19.5617ZM31.3189 23.8558C30.5644 24.6683 29.6884 25.359 28.7222 25.9031L29.6046 27.472C30.7337 26.8361 31.7573 26.0289 32.6387 25.079L31.3189 23.8558ZM27.2171 26.6054C26.1779 26.9963 25.085 27.2254 23.9764 27.2848L24.0718 29.0819C25.3646 29.0131 26.6392 28.7461 27.851 28.2902L27.2171 26.6054V26.6054Z" fill="#F8F8F8"/>
</g>
<defs>
<clipPath id="clip0_1143_6">
<rect width="36" height="36" fill="white"/>
</clipPath>
</defs>
</svg>
