<svg width="30" height="30" viewBox="0 0 30 30" fill="none" xmlns="http://www.w3.org/2000/svg">
<path d="M21.5125 11.25L16.0375 3.05C15.9206 2.88444 15.7649 2.75002 15.584 2.6585C15.4032 2.56699 15.2027 2.52115 15 2.525C14.6 2.525 14.2 2.7 13.9625 3.0625L8.4875 11.25H2.5C1.8125 11.25 1.25 11.8125 1.25 12.5C1.25 12.6125 1.2625 12.725 1.3 12.8375L4.475 24.425C4.7625 25.475 5.725 26.25 6.875 26.25H23.125C24.275 26.25 25.2375 25.475 25.5375 24.425L28.7125 12.8375L28.75 12.5C28.75 11.8125 28.1875 11.25 27.5 11.25H21.5125ZM11.25 11.25L15 5.75L18.75 11.25H11.25ZM15 21.25C13.625 21.25 12.5 20.125 12.5 18.75C12.5 17.375 13.625 16.25 15 16.25C16.375 16.25 17.5 17.375 17.5 18.75C17.5 20.125 16.375 21.25 15 21.25Z" fill="#F8F8F8"/>
</svg>
