<svg width="29" height="29" viewBox="0 0 29 29" fill="none" xmlns="http://www.w3.org/2000/svg">
<path d="M26.583 10.875H20.7951L15.4905 2.93622C15.38 2.77174 15.2307 2.63697 15.0558 2.54378C14.8809 2.4506 14.6858 2.40186 14.4876 2.40186C14.2894 2.40186 14.0943 2.4506 13.9194 2.54378C13.7445 2.63697 13.5952 2.77174 13.4847 2.93622L8.18009 10.875H2.41634C1.75176 10.875 1.20801 11.4187 1.20801 12.0833C1.20801 12.1921 1.22009 12.3008 1.25634 12.4096L4.32551 23.6108C4.60342 24.6258 5.53384 25.375 6.64551 25.375H22.3538C23.4655 25.375 24.3959 24.6258 24.6859 23.6108L27.7551 12.4096L27.7913 12.0833C27.7913 11.4187 27.2476 10.875 26.583 10.875ZM14.4876 5.78789L17.883 10.875H11.0922L14.4876 5.78789ZM14.4997 20.5416C13.1705 20.5416 12.083 19.4541 12.083 18.125C12.083 16.7958 13.1705 15.7083 14.4997 15.7083C15.8288 15.7083 16.9163 16.7958 16.9163 18.125C16.9163 19.4541 15.8288 20.5416 14.4997 20.5416Z" fill="black"/>
</svg>
