<svg width="28" height="27" viewBox="0 0 28 27" fill="none" xmlns="http://www.w3.org/2000/svg">
<path d="M25.6454 8.43748H13.781L8.25881 0.870952C8.04011 0.508049 7.73029 0.308452 7.32934 0.272162C6.92839 0.235871 6.54567 0.362887 6.18117 0.65321C5.63442 1.23386 5.59797 1.8145 6.07182 2.39515L10.3911 8.43748H2.35394C1.69784 8.43748 1.14199 8.6643 0.686363 9.11793C0.230741 9.57156 0.00292969 10.1068 0.00292969 10.7238V11.9214C0.00292969 12.9375 0.476777 13.627 1.42447 13.9899L4.65028 23.8427C4.79608 24.3508 5.08768 24.8135 5.52507 25.2308C5.96247 25.6482 6.45454 25.8568 7.00129 25.8568H20.998C21.5448 25.8568 22.0368 25.6482 22.4742 25.2308C22.9116 24.8135 23.2032 24.3508 23.349 23.8427L26.5748 14.0988C27.5225 13.7359 27.9964 13.0464 27.9964 12.0302V10.8326C27.9964 10.1431 27.7686 9.57156 27.3129 9.11793C26.8573 8.6643 26.3015 8.43748 25.6454 8.43748ZM2.35394 10.7238H12.1407L12.9608 11.8125C13.0337 11.8125 13.0702 11.8488 13.0702 11.9214H2.35394V10.7238ZM21.1074 23.1895V23.2984C21.1074 23.3347 21.0891 23.371 21.0527 23.4072C21.0162 23.4435 20.998 23.4798 20.998 23.5161H7.11064C7.03774 23.5161 7.00129 23.4435 7.00129 23.2984L3.99418 14.2076H24.0051L21.1074 23.1895ZM15.0385 11.9214C15.2936 11.4859 15.4212 11.0867 15.4212 10.7238H25.6454V11.9214H15.0385ZM8.14946 21.4476C8.18591 21.7016 8.33171 21.9193 8.58686 22.1008C8.842 22.2822 9.09715 22.373 9.3523 22.373H9.571C9.8626 22.3004 10.0995 22.1189 10.2818 21.8286C10.464 21.5383 10.5005 21.248 10.3911 20.9576L9.24295 16.3306C9.17005 16.0403 8.9878 15.8044 8.6962 15.623C8.40461 15.4415 8.11301 15.4052 7.82141 15.5141C7.52981 15.5867 7.29289 15.7681 7.11064 16.0585C6.92839 16.3488 6.89194 16.621 7.00129 16.875L8.14946 21.4476ZM18.4283 22.373H18.647C18.9021 22.373 19.1573 22.2822 19.4124 22.1008C19.6676 21.9193 19.8134 21.7016 19.8498 21.4476L20.998 16.7661C21.0709 16.4758 21.0253 16.1855 20.8613 15.8951C20.6973 15.6048 20.4695 15.4415 20.1779 15.4052C19.4124 15.2601 18.9386 15.5322 18.7563 16.2218L17.6082 20.8488C17.3895 21.5746 17.6629 22.0826 18.4283 22.373ZM13.9996 22.373C14.7651 22.373 15.1478 21.9738 15.1478 21.1754V16.5484C15.1478 15.7863 14.7651 15.4052 13.9996 15.4052C13.2342 15.4052 12.8515 15.7863 12.8515 16.5484V21.1754C12.8515 21.9738 13.2342 22.373 13.9996 22.373Z" fill="white"/>
</svg>
