<svg width="187" height="27" viewBox="0 0 187 27" fill="none" xmlns="http://www.w3.org/2000/svg">
<path d="M162.49 23.3719C162.446 23.5369 162.445 23.7085 162.488 23.8738C162.531 24.0391 162.616 24.1939 162.737 24.3265C162.858 24.459 163.012 24.566 163.188 24.6394C163.363 24.7127 163.555 24.7506 163.75 24.75C164.005 24.7501 164.254 24.6843 164.467 24.561L171.5 20.4773L178.533 24.561C178.753 24.6882 179.012 24.7537 179.276 24.7487C179.54 24.7437 179.796 24.6683 180.01 24.5328C180.223 24.3973 180.384 24.2081 180.47 23.9907C180.556 23.7733 180.564 23.5381 180.492 23.3168L178.13 16.1168L183.989 11.5245C184.176 11.3774 184.31 11.1855 184.374 10.9727C184.438 10.7599 184.429 10.5355 184.348 10.3272C184.267 10.1189 184.117 9.93593 183.918 9.80082C183.719 9.66571 183.478 9.58442 183.227 9.56701L175.863 9.05627L172.676 2.91264C172.575 2.71477 172.41 2.5467 172.201 2.42873C171.992 2.31076 171.749 2.24792 171.5 2.2478C171.251 2.24768 171.008 2.31029 170.799 2.42806C170.59 2.54583 170.425 2.71374 170.323 2.91152L167.136 9.05627L159.773 9.56589C159.525 9.58296 159.289 9.66175 159.091 9.79284C158.894 9.92392 158.744 10.1018 158.66 10.305C158.576 10.5083 158.56 10.7285 158.616 10.9392C158.671 11.1499 158.795 11.3421 158.973 11.493L164.416 16.1134L162.49 23.3719ZM171.5 6.10764L174.137 11.1938L174.897 11.2466H174.898L180.029 11.601L175.804 14.913L175.802 14.9153L175.204 15.3833L175.425 16.0549V16.0583L177.044 20.9914L171.5 17.7728V6.10764Z" fill="#FF4254"/>
<path d="M25.6045 10.3264C25.5312 10.1181 25.3962 9.93511 25.2163 9.79996C25.0363 9.66481 24.8192 9.58344 24.5919 9.56589L17.9407 9.05627L15.0625 2.91264C14.9709 2.71477 14.8218 2.5467 14.6333 2.42873C14.4447 2.31076 14.2248 2.24792 14.0001 2.2478C13.7753 2.24768 13.5554 2.31029 13.3667 2.42806C13.178 2.54583 13.0288 2.71374 12.9369 2.91152L10.0587 9.05627L3.40754 9.56589C3.18407 9.58296 2.97043 9.66175 2.79219 9.79284C2.61394 9.92392 2.47863 10.1018 2.40245 10.305C2.32626 10.5083 2.31243 10.7285 2.36261 10.9392C2.41278 11.1499 2.52484 11.3421 2.68537 11.493L7.60054 16.1134L5.86221 23.3719C5.80942 23.5916 5.82634 23.8215 5.91076 24.0319C5.99518 24.2422 6.14321 24.4232 6.33564 24.5514C6.52807 24.6796 6.75601 24.749 6.98989 24.7508C7.22376 24.7525 7.45277 24.6864 7.64721 24.561L13.9997 20.4773L20.3522 24.561C20.5509 24.6882 20.7853 24.7537 21.0238 24.7487C21.2623 24.7437 21.4934 24.6683 21.6862 24.5328C21.8789 24.3973 22.024 24.2081 22.1019 23.9907C22.1799 23.7733 22.1869 23.5381 22.122 23.3168L19.9882 16.1168L25.2802 11.5245C25.6267 11.223 25.7539 10.7528 25.6045 10.3264V10.3264Z" fill="#FF4254"/>
<path d="M104.605 10.3264C104.531 10.1181 104.396 9.93511 104.216 9.79996C104.036 9.66481 103.819 9.58344 103.592 9.56589L96.9407 9.05627L94.0625 2.91264C93.9709 2.71477 93.8218 2.5467 93.6333 2.42873C93.4447 2.31076 93.2248 2.24792 93.0001 2.2478C92.7753 2.24768 92.5554 2.31029 92.3667 2.42806C92.178 2.54583 92.0288 2.71374 91.9369 2.91152L89.0587 9.05627L82.4075 9.56589C82.1841 9.58296 81.9704 9.66175 81.7922 9.79284C81.6139 9.92392 81.4786 10.1018 81.4024 10.305C81.3263 10.5083 81.3124 10.7285 81.3626 10.9392C81.4128 11.1499 81.5248 11.3421 81.6854 11.493L86.6005 16.1134L84.8622 23.3719C84.8094 23.5916 84.8263 23.8215 84.9108 24.0319C84.9952 24.2422 85.1432 24.4232 85.3356 24.5514C85.5281 24.6796 85.756 24.749 85.9899 24.7508C86.2238 24.7525 86.4528 24.6864 86.6472 24.561L92.9997 20.4773L99.3522 24.561C99.5509 24.6882 99.7853 24.7537 100.024 24.7487C100.262 24.7437 100.493 24.6683 100.686 24.5328C100.879 24.3973 101.024 24.2081 101.102 23.9907C101.18 23.7733 101.187 23.5381 101.122 23.3168L98.9882 16.1168L104.28 11.5245C104.627 11.223 104.754 10.7528 104.605 10.3264V10.3264Z" fill="#FF4254"/>
<path d="M65.5197 10.3264C65.4437 10.1181 65.3039 9.93511 65.1175 9.79996C64.9311 9.66481 64.7063 9.58344 64.4708 9.56589L57.5821 9.05627L54.6012 2.91264C54.5062 2.71477 54.3518 2.5467 54.1565 2.42873C53.9613 2.31076 53.7335 2.24792 53.5008 2.2478C53.268 2.24768 53.0401 2.31029 52.8447 2.42806C52.6493 2.54583 52.4947 2.71374 52.3996 2.91152L49.4186 9.05627L42.5299 9.56589C42.2984 9.58296 42.0772 9.66175 41.8926 9.79284C41.708 9.92392 41.5678 10.1018 41.4889 10.305C41.41 10.5083 41.3957 10.7285 41.4476 10.9392C41.4996 11.1499 41.6157 11.3421 41.7819 11.493L46.8726 16.1134L45.0722 23.3719C45.0176 23.5916 45.0351 23.8215 45.1225 24.0319C45.21 24.2422 45.3633 24.4232 45.5626 24.5514C45.7619 24.6796 45.998 24.749 46.2402 24.7508C46.4824 24.7525 46.7196 24.6864 46.921 24.561L53.5004 20.4773L60.0797 24.561C60.2856 24.6882 60.5283 24.7537 60.7753 24.7487C61.0223 24.7437 61.2617 24.6683 61.4613 24.5328C61.661 24.3973 61.8112 24.2081 61.892 23.9907C61.9727 23.7733 61.9799 23.5381 61.9128 23.3168L59.7027 16.1168L65.1837 11.5245C65.5426 11.223 65.6743 10.7528 65.5197 10.3264V10.3264Z" fill="#FF4254"/>
<path d="M142.605 10.3264C142.531 10.1181 142.396 9.93511 142.216 9.79996C142.036 9.66481 141.819 9.58344 141.592 9.56589L134.941 9.05627L132.063 2.91264C131.971 2.71477 131.822 2.5467 131.633 2.42873C131.445 2.31076 131.225 2.24792 131 2.2478C130.775 2.24768 130.555 2.31029 130.367 2.42806C130.178 2.54583 130.029 2.71374 129.937 2.91152L127.059 9.05627L120.408 9.56589C120.184 9.58296 119.97 9.66175 119.792 9.79284C119.614 9.92392 119.479 10.1018 119.402 10.305C119.326 10.5083 119.312 10.7285 119.363 10.9392C119.413 11.1499 119.525 11.3421 119.685 11.493L124.601 16.1134L122.862 23.3719C122.809 23.5916 122.826 23.8215 122.911 24.0319C122.995 24.2422 123.143 24.4232 123.336 24.5514C123.528 24.6796 123.756 24.749 123.99 24.7508C124.224 24.7525 124.453 24.6864 124.647 24.561L131 20.4773L137.352 24.561C137.551 24.6882 137.785 24.7537 138.024 24.7487C138.262 24.7437 138.493 24.6683 138.686 24.5328C138.879 24.3973 139.024 24.2081 139.102 23.9907C139.18 23.7733 139.187 23.5381 139.122 23.3168L136.988 16.1168L142.28 11.5245C142.627 11.223 142.754 10.7528 142.605 10.3264V10.3264Z" fill="#FF4254"/>
</svg>
