<svg width="36" height="36" viewBox="0 0 36 36" fill="none" xmlns="http://www.w3.org/2000/svg">
<path d="M30.8852 3.099L17.9897 0L5.11523 3.099V13.017H11.9507C11.8907 13.4921 11.8907 13.9729 11.9507 14.448H5.11523V19.107C5.11523 29.8005 17.9912 36 17.9912 36C17.9912 36 30.8642 29.8005 30.8642 19.113V14.4525H24.0467C24.1099 13.9776 24.1099 13.4964 24.0467 13.0215H30.8837L30.8852 3.099ZM18.0002 18.393H17.9912C16.7548 18.3918 15.5694 17.8996 14.6958 17.0247C13.8221 16.1498 13.3316 14.9637 13.3322 13.7273C13.3328 12.4908 13.8244 11.3052 14.6989 10.4311C15.5734 9.55703 16.7593 9.066 17.9957 9.066C19.2322 9.066 20.418 9.55703 21.2925 10.4311C22.167 11.3052 22.6586 12.4908 22.6592 13.7273C22.6598 14.9637 22.1694 16.1498 21.2957 17.0247C20.422 17.8996 19.2367 18.3918 18.0002 18.393V18.393ZM17.9912 11.5245C17.7199 11.5231 17.456 11.6131 17.2422 11.7802C17.0284 11.9473 16.8772 12.1816 16.813 12.4452C16.7488 12.7089 16.7754 12.9865 16.8885 13.2331C17.0016 13.4798 17.1946 13.6811 17.4362 13.8045V14.1165L17.7932 14.472V14.7105L18.0317 14.949V15.1875L17.8217 15.3975L18.0467 15.7665V16.005L17.8067 16.2885L18.1412 16.6215L18.5102 16.2525V13.827C18.7618 13.7119 18.9662 13.5137 19.089 13.2657C19.2119 13.0178 19.2457 12.7351 19.1849 12.4652C19.124 12.1953 18.9722 11.9545 18.7549 11.7832C18.5375 11.6119 18.2679 11.5206 17.9912 11.5245V11.5245ZM17.9912 12.7785C17.9025 12.7788 17.8156 12.7527 17.7417 12.7036C17.6677 12.6545 17.61 12.5846 17.5758 12.5027C17.5416 12.4207 17.5325 12.3305 17.5497 12.2434C17.5668 12.1563 17.6094 12.0763 17.6721 12.0134C17.7347 11.9505 17.8146 11.9077 17.9017 11.8902C17.9887 11.8728 18.079 11.8816 18.161 11.9155C18.2431 11.9494 18.3132 12.0069 18.3625 12.0807C18.4119 12.1545 18.4382 12.2412 18.4382 12.33C18.4384 12.3889 18.427 12.4473 18.4047 12.5017C18.3823 12.5562 18.3494 12.6058 18.3079 12.6476C18.2664 12.6894 18.2171 12.7226 18.1628 12.7453C18.1084 12.768 18.0501 12.7798 17.9912 12.78V12.7785Z" fill="white"/>
</svg>
